<svg width="22" height="22" viewBox="0 0 22 22" fill="none" xmlns="http://www.w3.org/2000/svg">
<g clip-path="url(#clip0_259_3264)">
<path d="M13.2135 0H4.58398C3.85464 0 3.15517 0.289731 2.63944 0.805456C2.12372 1.32118 1.83398 2.02065 1.83398 2.75V22H20.1673V6.95383L13.2135 0ZM13.7507 3.1295L17.0378 6.41667H13.7507V3.1295ZM3.66732 20.1667V2.75C3.66732 2.50688 3.7639 2.27373 3.9358 2.10182C4.10771 1.92991 4.34087 1.83333 4.58398 1.83333H11.9173V8.25H18.334V20.1667H3.66732ZM11.9173 12.8333H14.6673V14.6667H11.9173V17.4167H10.084V14.6667H7.33398V12.8333H10.084V10.0833H11.9173V12.8333Z" fill="white"/>
</g>
<defs>
<clipPath id="clip0_259_3264">
<rect width="22" height="22" fill="white"/>
</clipPath>
</defs>
</svg>
