<svg width="14" height="12" viewBox="0 0 14 12" fill="none" xmlns="http://www.w3.org/2000/svg">
<path d="M13 5H3L6.29 1.71C6.38373 1.61704 6.45812 1.50644 6.50889 1.38458C6.55966 1.26272 6.5858 1.13201 6.5858 0.999999C6.5858 0.867987 6.55966 0.737282 6.50889 0.615422C6.45812 0.493563 6.38373 0.382962 6.29 0.289999C6.10264 0.103748 5.84919 -0.000793457 5.585 -0.000793457C5.32082 -0.000793457 5.06736 0.103748 4.88 0.289999L0.59 4.59C0.214412 4.96335 0.00223279 5.47042 0 6C0.00486659 6.5261 0.216844 7.0291 0.59 7.4L4.88 11.7C4.97324 11.7926 5.0838 11.8659 5.20537 11.9157C5.32694 11.9656 5.45714 11.991 5.58854 11.9906C5.71993 11.9901 5.84995 11.9638 5.97116 11.913C6.09238 11.8623 6.20242 11.7882 6.295 11.695C6.38758 11.6018 6.46089 11.4912 6.51075 11.3696C6.5606 11.2481 6.58602 11.1179 6.58556 10.9865C6.58509 10.8551 6.55875 10.7251 6.50804 10.6038C6.45733 10.4826 6.38324 10.3726 6.29 10.28L3 7H13C13.2652 7 13.5196 6.89464 13.7071 6.70711C13.8946 6.51957 14 6.26522 14 6C14 5.73478 13.8946 5.48043 13.7071 5.29289C13.5196 5.10536 13.2652 5 13 5Z" fill="black"/>
</svg>
