<svg width="18" height="18" viewBox="0 0 18 18" fill="none" xmlns="http://www.w3.org/2000/svg">
<g clip-path="url(#clip0_414_464)">
<path d="M17.4441 12.15L15.4941 5.12176C15.0777 3.61832 14.1704 2.29736 12.9165 1.36912C11.6627 0.440881 10.1344 -0.0413 8.57492 -0.000680233C7.01541 0.0399395 5.5143 0.601026 4.3105 1.59328C3.1067 2.58553 2.26938 3.95193 1.93181 5.47501L0.423565 12.2625C0.350584 12.5913 0.352364 12.9324 0.428774 13.2604C0.505183 13.5885 0.654272 13.8952 0.86504 14.1579C1.07581 14.4207 1.34288 14.6327 1.64655 14.7785C1.95022 14.9242 2.28273 14.9999 2.61956 15H5.32481C5.49695 15.8477 5.95686 16.6099 6.62662 17.1573C7.29638 17.7047 8.1348 18.0038 8.99981 18.0038C9.86483 18.0038 10.7032 17.7047 11.373 17.1573C12.0428 16.6099 12.5027 15.8477 12.6748 15H15.2773C15.6239 14.9999 15.9658 14.9196 16.2762 14.7656C16.5867 14.6116 16.8574 14.3879 17.0672 14.112C17.277 13.8362 17.4202 13.5156 17.4857 13.1752C17.5512 12.8349 17.5365 12.484 17.4441 12.15ZM8.99981 16.5C8.53612 16.4981 8.08434 16.3529 7.70629 16.0844C7.32824 15.8159 7.04238 15.4372 6.88781 15H11.1118C10.9573 15.4372 10.6714 15.8159 10.2933 16.0844C9.91529 16.3529 9.46351 16.4981 8.99981 16.5ZM15.8736 13.2038C15.8036 13.2965 15.7129 13.3716 15.6087 13.4231C15.5045 13.4745 15.3898 13.5009 15.2736 13.5H2.61956C2.50726 13.5 2.39639 13.4747 2.29515 13.4262C2.1939 13.3776 2.10487 13.3068 2.0346 13.2192C1.96434 13.1316 1.91465 13.0294 1.8892 12.92C1.86375 12.8106 1.86319 12.6969 1.88756 12.5873L3.39581 5.79976C3.66158 4.60441 4.31929 3.53221 5.26441 2.75359C6.20952 1.97498 7.38778 1.53464 8.61189 1.50257C9.83601 1.4705 11.0357 1.84854 12.0203 2.57661C13.0049 3.30467 13.7178 4.34097 14.0458 5.52076L15.9958 12.549C16.0277 12.6601 16.0332 12.7772 16.012 12.8908C15.9907 13.0045 15.9434 13.1116 15.8736 13.2038Z" fill="white"/>
</g>
<defs>
<clipPath id="clip0_414_464">
<rect width="18" height="18" fill="white"/>
</clipPath>
</defs>
</svg>
