<svg width="22" height="22" viewBox="0 0 22 22" fill="none" xmlns="http://www.w3.org/2000/svg">
<g clip-path="url(#clip0_414_492)">
<path d="M21.0833 20.1665H20.1667V12.8331C20.1652 11.618 19.6819 10.4531 18.8226 9.59385C17.9634 8.73462 16.7985 8.25127 15.5833 8.24981H11.9167V5.53556C12.325 5.35734 12.6726 5.06395 12.9168 4.69129C13.161 4.31863 13.2913 3.88286 13.2917 3.43731C13.044 2.26561 12.4862 1.18193 11.6765 0.299564C11.5906 0.205633 11.4861 0.130617 11.3696 0.0792937C11.2532 0.0279705 11.1273 0.00146484 11 0.00146484C10.8727 0.00146484 10.7468 0.0279705 10.6304 0.0792937C10.5139 0.130617 10.4094 0.205633 10.3235 0.299564C9.51378 1.18193 8.95596 2.26561 8.70833 3.43731C8.70874 3.88286 8.83902 4.31863 9.08323 4.69129C9.32744 5.06395 9.67498 5.35734 10.0833 5.53556V8.24981H6.41667C5.20154 8.25127 4.03659 8.73462 3.17737 9.59385C2.31814 10.4531 1.83479 11.618 1.83333 12.8331V20.1665H0.916667C0.673552 20.1665 0.440394 20.2631 0.268485 20.435C0.0965771 20.6069 0 20.84 0 21.0831C0 21.3263 0.0965771 21.5594 0.268485 21.7313C0.440394 21.9032 0.673552 21.9998 0.916667 21.9998H21.0833C21.3264 21.9998 21.5596 21.9032 21.7315 21.7313C21.9034 21.5594 22 21.3263 22 21.0831C22 20.84 21.9034 20.6069 21.7315 20.435C21.5596 20.2631 21.3264 20.1665 21.0833 20.1665ZM6.41667 10.0831H15.5833C16.3127 10.0831 17.0122 10.3729 17.5279 10.8886C18.0436 11.4043 18.3333 12.1038 18.3333 12.8331V14.6481C17.4753 14.5565 16.9583 14.0065 16.9583 13.7498C16.9583 13.5067 16.8618 13.2735 16.6898 13.1016C16.5179 12.9297 16.2848 12.8331 16.0417 12.8331C15.7986 12.8331 15.5654 12.9297 15.3935 13.1016C15.2216 13.2735 15.125 13.5067 15.125 13.7498C15.125 14.0642 14.4998 14.6665 13.5208 14.6665C12.5226 14.6665 11.9167 14.0303 11.9167 13.7498C11.9167 13.5067 11.8201 13.2735 11.6482 13.1016C11.4763 12.9297 11.2431 12.8331 11 12.8331C10.7569 12.8331 10.5237 12.9297 10.3518 13.1016C10.1799 13.2735 10.0833 13.5067 10.0833 13.7498C10.0833 14.0642 9.45817 14.6665 8.47917 14.6665C7.48092 14.6665 6.875 14.0303 6.875 13.7498C6.875 13.5067 6.77842 13.2735 6.60651 13.1016C6.43461 12.9297 6.20145 12.8331 5.95833 12.8331C5.71522 12.8331 5.48206 12.9297 5.31015 13.1016C5.13824 13.2735 5.04167 13.5067 5.04167 13.7498C5.04167 14.0386 4.51092 14.5638 3.66667 14.6491V12.8331C3.66667 12.1038 3.9564 11.4043 4.47212 10.8886C4.98785 10.3729 5.68732 10.0831 6.41667 10.0831ZM3.66667 16.4806C4.5088 16.4432 5.31477 16.1276 5.95833 15.5831C6.66542 16.1726 7.55616 16.4965 8.47669 16.499C9.39721 16.5015 10.2897 16.1824 11 15.5969C11.7103 16.1824 12.6028 16.5015 13.5233 16.499C14.4438 16.4965 15.3346 16.1726 16.0417 15.5831C16.6854 16.1273 17.4913 16.4425 18.3333 16.4796V20.1665H3.66667V16.4806Z" fill="white"/>
</g>
<defs>
<clipPath id="clip0_414_492">
<rect width="22" height="22" fill="white"/>
</clipPath>
</defs>
</svg>
