<svg width="25" height="25" viewBox="0 0 25 25" fill="none" xmlns="http://www.w3.org/2000/svg">
<g clip-path="url(#clip0_495_2233)">
<path d="M18.7434 2.38124C17.472 1.24534 15.9148 0.477677 14.2396 0.160851C12.5643 -0.155974 10.8344 -0.00996258 9.23597 0.583172C7.63753 1.17631 6.23109 2.19411 5.16803 3.52704C4.10496 4.85997 3.4255 6.45757 3.20279 8.1479C3.00276 9.63003 3.16274 11.1385 3.66916 12.5458C4.17558 13.953 5.01356 15.2175 6.11216 16.2323C6.79154 16.828 7.33974 17.5584 7.72204 18.3772C8.10433 19.1959 8.31238 20.0852 8.33299 20.9885V21.1562C8.3341 22.1753 8.73942 23.1524 9.46002 23.873C10.1806 24.5936 11.1577 24.9989 12.1767 25H12.8226C13.8417 24.9989 14.8187 24.5936 15.5393 23.873C16.2599 23.1524 16.6652 22.1753 16.6663 21.1562V20.5844C16.6819 19.7859 16.8698 19.0002 17.2172 18.2811C17.5645 17.5619 18.0631 16.9263 18.6788 16.4177C19.6774 15.5432 20.4787 14.4664 21.0296 13.2588C21.5806 12.0512 21.8687 10.7403 21.8748 9.41298C21.8809 8.08563 21.6049 6.77214 21.0651 5.55952C20.5252 4.3469 19.7339 3.26284 18.7434 2.37915V2.38124ZM12.8226 22.9167H12.1767C11.71 22.9161 11.2626 22.7304 10.9326 22.4004C10.6025 22.0704 10.4169 21.623 10.4163 21.1562C10.4163 21.1562 10.409 20.8854 10.408 20.8333H14.583V21.1562C14.5824 21.623 14.3968 22.0704 14.0668 22.4004C13.7367 22.7304 13.2893 22.9161 12.8226 22.9167ZM17.3017 14.8531C16.1157 15.8818 15.2592 17.2372 14.8392 18.75H13.5413V11.2667C14.1485 11.052 14.6746 10.655 15.0475 10.1299C15.4204 9.60481 15.622 8.97734 15.6247 8.33332C15.6247 8.05705 15.5149 7.7921 15.3196 7.59675C15.1242 7.4014 14.8593 7.29165 14.583 7.29165C14.3067 7.29165 14.0418 7.4014 13.8464 7.59675C13.6511 7.7921 13.5413 8.05705 13.5413 8.33332C13.5413 8.60959 13.4316 8.87454 13.2362 9.06989C13.0409 9.26524 12.7759 9.37498 12.4997 9.37498C12.2234 9.37498 11.9584 9.26524 11.7631 9.06989C11.5677 8.87454 11.458 8.60959 11.458 8.33332C11.458 8.05705 11.3482 7.7921 11.1529 7.59675C10.9575 7.4014 10.6926 7.29165 10.4163 7.29165C10.1401 7.29165 9.87511 7.4014 9.67976 7.59675C9.48441 7.7921 9.37466 8.05705 9.37466 8.33332C9.37733 8.97734 9.57892 9.60481 9.95184 10.1299C10.3248 10.655 10.8508 11.052 11.458 11.2667V18.75H10.0809C9.61111 17.1971 8.72999 15.8002 7.53091 14.7073C6.51316 13.7589 5.78792 12.5393 5.44078 11.1922C5.09364 9.84506 5.13908 8.42677 5.57175 7.10467C6.00443 5.78256 6.80627 4.61181 7.88265 3.73057C8.95903 2.84934 10.265 2.2944 11.6465 2.13124C11.9329 2.09927 12.2209 2.08327 12.509 2.08332C14.2982 2.078 16.0254 2.73814 17.3549 3.9354C18.1254 4.62248 18.7411 5.46549 19.1611 6.40855C19.5811 7.35161 19.7958 8.37318 19.7911 9.40553C19.7864 10.4379 19.5623 11.4574 19.1336 12.3966C18.705 13.3358 18.0816 14.1731 17.3049 14.8531H17.3017Z" fill="white"/>
</g>
<defs>
<clipPath id="clip0_495_2233">
<rect width="25" height="25" fill="white"/>
</clipPath>
</defs>
</svg>
