<svg width="30" height="30" viewBox="0 0 30 30" fill="none" xmlns="http://www.w3.org/2000/svg">
<g clip-path="url(#clip0_379_451)">
<path d="M22.4925 2.85751C20.9668 1.49444 19.0982 0.573242 17.0879 0.193052C15.0777 -0.187138 13.0017 -0.0119246 11.0836 0.699837C9.16547 1.4116 7.47775 2.63296 6.20207 4.23248C4.92639 5.832 4.11104 7.74911 3.84378 9.77751C3.60376 11.5561 3.79572 13.3663 4.40343 15.0549C5.01114 16.7436 6.01671 18.261 7.33503 19.4788C8.15028 20.1937 8.80813 21.0702 9.26689 22.0527C9.72564 23.0351 9.9753 24.1022 10 25.1863V25.3875C10.0014 26.6104 10.4877 27.7829 11.3525 28.6476C12.2172 29.5123 13.3896 29.9987 14.6125 30H15.3875C16.6104 29.9987 17.7829 29.5123 18.6476 28.6476C19.5123 27.7829 19.9987 26.6104 20 25.3875V24.7013C20.0187 23.7431 20.2442 22.8003 20.661 21.9373C21.0778 21.0743 21.6762 20.3116 22.415 19.7013C23.6133 18.6518 24.5748 17.3597 25.236 15.9106C25.8972 14.4615 26.2429 12.8884 26.2502 11.2956C26.2575 9.70279 25.9263 8.1266 25.2785 6.67146C24.6307 5.21632 23.6811 3.91544 22.4925 2.85501V2.85751ZM15.3875 27.5H14.6125C14.0525 27.4993 13.5155 27.2766 13.1195 26.8805C12.7235 26.4845 12.5007 25.9476 12.5 25.3875C12.5 25.3875 12.4913 25.0625 12.49 25H17.5V25.3875C17.4994 25.9476 17.2766 26.4845 16.8806 26.8805C16.4845 27.2766 15.9476 27.4993 15.3875 27.5ZM20.7625 17.8238C19.3393 19.0582 18.3115 20.6847 17.8075 22.5H16.25V13.52C16.9787 13.2624 17.6099 12.786 18.0574 12.1559C18.5049 11.5258 18.7468 10.7728 18.75 10C18.75 9.66849 18.6183 9.35055 18.3839 9.11613C18.1495 8.88171 17.8316 8.75001 17.5 8.75001C17.1685 8.75001 16.8506 8.88171 16.6161 9.11613C16.3817 9.35055 16.25 9.66849 16.25 10C16.25 10.3315 16.1183 10.6495 15.8839 10.8839C15.6495 11.1183 15.3316 11.25 15 11.25C14.6685 11.25 14.3506 11.1183 14.1161 10.8839C13.8817 10.6495 13.75 10.3315 13.75 10C13.75 9.66849 13.6183 9.35055 13.3839 9.11613C13.1495 8.88171 12.8316 8.75001 12.5 8.75001C12.1685 8.75001 11.8506 8.88171 11.6161 9.11613C11.3817 9.35055 11.25 9.66849 11.25 10C11.2532 10.7728 11.4951 11.5258 11.9426 12.1559C12.3901 12.786 13.0214 13.2624 13.75 13.52V22.5H12.0975C11.5338 20.6365 10.4764 18.9602 9.03753 17.6488C7.81623 16.5108 6.94594 15.0471 6.52937 13.4306C6.1128 11.8141 6.16734 10.1122 6.68654 8.52563C7.20575 6.9391 8.16796 5.5342 9.45962 4.47672C10.7513 3.41923 12.3185 2.7533 13.9763 2.55751C14.3199 2.51915 14.6655 2.49995 15.0113 2.50001C17.1582 2.49363 19.2309 3.28579 20.8263 4.72251C21.7509 5.54701 22.4897 6.55862 22.9937 7.69029C23.4977 8.82197 23.7554 10.0478 23.7498 11.2867C23.7441 12.5255 23.4752 13.749 22.9608 14.876C22.4464 16.003 21.6984 17.0078 20.7663 17.8238H20.7625Z" fill="#349EB0"/>
</g>
<defs>
<clipPath id="clip0_379_451">
<rect width="30" height="30" fill="white"/>
</clipPath>
</defs>
</svg>
