<svg width="26" height="23" viewBox="0 0 26 23" fill="none" xmlns="http://www.w3.org/2000/svg">
<path d="M26 1.79166C26 2.69082 25.2742 3.41666 24.375 3.41666H1.625C0.725833 3.41666 0 2.69082 0 1.79166C0 0.89249 0.725833 0.166656 1.625 0.166656H24.375C25.2742 0.166656 26 0.89249 26 1.79166ZM7.04167 19.6667H1.625C0.725833 19.6667 0 20.3925 0 21.2917C0 22.1908 0.725833 22.9167 1.625 22.9167H7.04167C7.94083 22.9167 8.66667 22.1908 8.66667 21.2917C8.66667 20.3925 7.94083 19.6667 7.04167 19.6667ZM15.7083 9.91666H1.625C0.725833 9.91666 0 10.6425 0 11.5417C0 12.4408 0.725833 13.1667 1.625 13.1667H15.7083C16.6075 13.1667 17.3333 12.4408 17.3333 11.5417C17.3333 10.6425 16.6075 9.91666 15.7083 9.91666Z" fill="black"/>
</svg>
