<svg width="16" height="16" viewBox="0 0 16 16" fill="none" xmlns="http://www.w3.org/2000/svg">
<g clip-path="url(#clip0_495_1512)">
<path d="M12.6667 2.66667H12.328L10.872 0.778667C10.6844 0.537204 10.4442 0.341611 10.1698 0.206703C9.89534 0.0717943 9.5938 0.0011087 9.288 0L6.712 0C6.4062 0.0011087 6.10466 0.0717943 5.83022 0.206703C5.55579 0.341611 5.31565 0.537204 5.128 0.778667L3.672 2.66667H3.33333C2.4496 2.66773 1.60237 3.01925 0.97748 3.64415C0.352588 4.26904 0.00105857 5.11627 0 6L0 12.6667C0.00105857 13.5504 0.352588 14.3976 0.97748 15.0225C1.60237 15.6474 2.4496 15.9989 3.33333 16H12.6667C13.5504 15.9989 14.3976 15.6474 15.0225 15.0225C15.6474 14.3976 15.9989 13.5504 16 12.6667V6C15.9989 5.11627 15.6474 4.26904 15.0225 3.64415C14.3976 3.01925 13.5504 2.66773 12.6667 2.66667ZM6.184 1.59333C6.24645 1.5127 6.32646 1.44738 6.41796 1.40232C6.50945 1.35727 6.61001 1.33367 6.712 1.33333H9.288C9.38997 1.33377 9.4905 1.35741 9.58198 1.40246C9.67346 1.4475 9.75348 1.51278 9.816 1.59333L10.644 2.66667H5.356L6.184 1.59333ZM14.6667 12.6667C14.6667 13.1971 14.456 13.7058 14.0809 14.0809C13.7058 14.456 13.1971 14.6667 12.6667 14.6667H3.33333C2.8029 14.6667 2.29419 14.456 1.91912 14.0809C1.54405 13.7058 1.33333 13.1971 1.33333 12.6667V6C1.33333 5.46957 1.54405 4.96086 1.91912 4.58579C2.29419 4.21071 2.8029 4 3.33333 4H12.6667C13.1971 4 13.7058 4.21071 14.0809 4.58579C14.456 4.96086 14.6667 5.46957 14.6667 6V12.6667Z" fill="black"/>
<path d="M8 5.33331C7.20888 5.33331 6.43552 5.56791 5.77772 6.00743C5.11992 6.44696 4.60723 7.07167 4.30448 7.80258C4.00173 8.53348 3.92252 9.33775 4.07686 10.1137C4.2312 10.8896 4.61216 11.6023 5.17157 12.1617C5.73098 12.7212 6.44372 13.1021 7.21964 13.2565C7.99556 13.4108 8.79983 13.3316 9.53074 13.0288C10.2616 12.7261 10.8864 12.2134 11.3259 11.5556C11.7654 10.8978 12 10.1244 12 9.33331C11.9989 8.27277 11.5772 7.25597 10.8273 6.50606C10.0773 5.75614 9.06054 5.33437 8 5.33331ZM8 12C7.47259 12 6.95701 11.8436 6.51848 11.5506C6.07995 11.2575 5.73816 10.8411 5.53632 10.3538C5.33449 9.86653 5.28168 9.33035 5.38457 8.81307C5.48747 8.29579 5.74144 7.82063 6.11438 7.44769C6.48732 7.07475 6.96248 6.82078 7.47976 6.71789C7.99704 6.61499 8.53322 6.6678 9.02049 6.86963C9.50776 7.07147 9.92424 7.41326 10.2173 7.85179C10.5103 8.29032 10.6667 8.8059 10.6667 9.33331C10.6667 10.0406 10.3857 10.7188 9.88562 11.2189C9.38552 11.719 8.70725 12 8 12Z" fill="black"/>
</g>
<defs>
<clipPath id="clip0_495_1512">
<rect width="16" height="16" fill="white"/>
</clipPath>
</defs>
</svg>
