<svg width="14" height="14" viewBox="0 0 14 14" fill="none" xmlns="http://www.w3.org/2000/svg">
<path d="M2.91667 1.16667H3.5V0.583333C3.5 0.428624 3.56146 0.280251 3.67085 0.170854C3.78025 0.0614582 3.92862 0 4.08333 0C4.23804 0 4.38642 0.0614582 4.49581 0.170854C4.60521 0.280251 4.66667 0.428624 4.66667 0.583333V1.16667H9.33333V0.583333C9.33333 0.428624 9.39479 0.280251 9.50419 0.170854C9.61358 0.0614582 9.76196 0 9.91667 0C10.0714 0 10.2197 0.0614582 10.3291 0.170854C10.4385 0.280251 10.5 0.428624 10.5 0.583333V1.16667H11.0833C11.8566 1.16759 12.5979 1.47518 13.1447 2.02196C13.6915 2.56874 13.9991 3.31007 14 4.08333L14 11.0833C13.9991 11.8566 13.6915 12.5979 13.1447 13.1447C12.5979 13.6915 11.8566 13.9991 11.0833 14H2.91667C2.1434 13.9991 1.40207 13.6915 0.855295 13.1447C0.308515 12.5979 0.000926971 11.8566 0 11.0833V4.08333C0.000926971 3.31007 0.308515 2.56874 0.855295 2.02196C1.40207 1.47518 2.1434 1.16759 2.91667 1.16667ZM12.8333 4.08333C12.8333 3.6192 12.649 3.17409 12.3208 2.8459C11.9926 2.51771 11.5475 2.33333 11.0833 2.33333H2.91667C2.45254 2.33333 2.00742 2.51771 1.67923 2.8459C1.35104 3.17409 1.16667 3.6192 1.16667 4.08333V4.66667H12.8333V4.08333ZM2.91667 12.8333H11.0833C11.5475 12.8333 11.9926 12.649 12.3208 12.3208C12.649 11.9926 12.8333 11.5475 12.8333 11.0833V5.83333H1.16667V11.0833C1.16667 11.5475 1.35104 11.9926 1.67923 12.3208C2.00742 12.649 2.45254 12.8333 2.91667 12.8333Z" fill="#45A4B8"/>
</svg>
