<svg width="23" height="23" viewBox="0 0 23 23" fill="none" xmlns="http://www.w3.org/2000/svg">
<path d="M22.0417 21.0833H21.0833V13.4167C21.0818 12.1463 20.5765 10.9284 19.6782 10.0301C18.7799 9.13183 17.562 8.62651 16.2917 8.62498H12.4583V5.78736C12.8852 5.60104 13.2486 5.29431 13.5039 4.90471C13.7592 4.51511 13.8954 4.05953 13.8958 3.59373C13.637 2.36877 13.0538 1.23583 12.2072 0.313358C12.1175 0.215157 12.0082 0.136732 11.8864 0.0830755C11.7647 0.0294194 11.6331 0.00170898 11.5 0.00170898C11.3669 0.00170898 11.2353 0.0294194 11.1136 0.0830755C10.9918 0.136732 10.8825 0.215157 10.7927 0.313358C9.94623 1.23583 9.36305 2.36877 9.10417 3.59373C9.10459 4.05953 9.24079 4.51511 9.4961 4.90471C9.75141 5.29431 10.1148 5.60104 10.5417 5.78736V8.62498H6.70833C5.43797 8.62651 4.22008 9.13183 3.32179 10.0301C2.42351 10.9284 1.91819 12.1463 1.91667 13.4167V21.0833H0.958333C0.704167 21.0833 0.460412 21.1843 0.280689 21.364C0.100967 21.5437 0 21.7875 0 22.0417C0 22.2958 0.100967 22.5396 0.280689 22.7193C0.460412 22.899 0.704167 23 0.958333 23H22.0417C22.2958 23 22.5396 22.899 22.7193 22.7193C22.899 22.5396 23 22.2958 23 22.0417C23 21.7875 22.899 21.5437 22.7193 21.364C22.5396 21.1843 22.2958 21.0833 22.0417 21.0833ZM6.70833 10.5417H16.2917C17.0542 10.5417 17.7854 10.8446 18.3246 11.3837C18.8638 11.9229 19.1667 12.6542 19.1667 13.4167V15.3141C18.2697 15.2183 17.7292 14.6433 17.7292 14.375C17.7292 14.1208 17.6282 13.8771 17.4485 13.6973C17.2688 13.5176 17.025 13.4167 16.7708 13.4167C16.5167 13.4167 16.2729 13.5176 16.0932 13.6973C15.9135 13.8771 15.8125 14.1208 15.8125 14.375C15.8125 14.7037 15.1589 15.3333 14.1354 15.3333C13.0918 15.3333 12.4583 14.6682 12.4583 14.375C12.4583 14.1208 12.3574 13.8771 12.1776 13.6973C11.9979 13.5176 11.7542 13.4167 11.5 13.4167C11.2458 13.4167 11.0021 13.5176 10.8224 13.6973C10.6426 13.8771 10.5417 14.1208 10.5417 14.375C10.5417 14.7037 9.88808 15.3333 8.86458 15.3333C7.82096 15.3333 7.1875 14.6682 7.1875 14.375C7.1875 14.1208 7.08653 13.8771 6.90681 13.6973C6.72709 13.5176 6.48333 13.4167 6.22917 13.4167C5.975 13.4167 5.73125 13.5176 5.55152 13.6973C5.3718 13.8771 5.27083 14.1208 5.27083 14.375C5.27083 14.6769 4.71596 15.226 3.83333 15.3151V13.4167C3.83333 12.6542 4.13623 11.9229 4.6754 11.3837C5.21457 10.8446 5.94584 10.5417 6.70833 10.5417ZM3.83333 17.2299C4.71375 17.1908 5.55635 16.8608 6.22917 16.2917C6.96839 16.9079 7.89962 17.2465 8.86199 17.2491C9.82436 17.2518 10.7574 16.9182 11.5 16.306C12.2426 16.9182 13.1756 17.2518 14.138 17.2491C15.1004 17.2465 16.0316 16.9079 16.7708 16.2917C17.4438 16.8605 18.2864 17.1901 19.1667 17.2289V21.0833H3.83333V17.2299Z" fill="#45A5B6"/>
</svg>
