<svg width="20" height="22" viewBox="0 0 20 22" fill="none" xmlns="http://www.w3.org/2000/svg">
<path d="M5.41634 11H14.583V12.8333H5.41634V11ZM5.41634 16.5H11.833V14.6667H5.41634V16.5ZM19.1663 6.95383V22H0.833008V2.75C0.833008 2.02065 1.12274 1.32118 1.63846 0.805456C2.15419 0.289731 2.85366 0 3.58301 0L12.2125 0L19.1663 6.95383ZM12.7497 6.41667H16.0368L12.7497 3.1295V6.41667ZM17.333 20.1667V8.25H10.9163V1.83333H3.58301C3.33989 1.83333 3.10674 1.92991 2.93483 2.10182C2.76292 2.27373 2.66634 2.50688 2.66634 2.75V20.1667H17.333Z" fill="white"/>
</svg>
