<svg width="18" height="18" viewBox="0 0 18 18" fill="none" xmlns="http://www.w3.org/2000/svg">
<g clip-path="url(#clip0_259_2389)">
<path d="M8.99986 12.8775C9.49265 12.8783 9.98078 12.7821 10.4363 12.5942C10.8919 12.4063 11.306 12.1305 11.6549 11.7825L17.7824 5.65495C17.9236 5.51373 18.0029 5.32218 18.0029 5.12245C18.0029 4.92273 17.9236 4.73118 17.7824 4.58995C17.6411 4.44873 17.4496 4.36938 17.2499 4.36938C17.0501 4.36938 16.8586 4.44873 16.7174 4.58995L10.5899 10.7175C10.168 11.1388 9.59611 11.3755 8.99986 11.3755C8.40361 11.3755 7.83174 11.1388 7.40986 10.7175L1.28236 4.58995C1.14113 4.44873 0.949587 4.36938 0.749861 4.36938C0.550133 4.36938 0.358589 4.44873 0.217361 4.58995C0.0761318 4.73118 -0.00320816 4.92273 -0.00320816 5.12245C-0.00320816 5.32218 0.0761318 5.51373 0.217361 5.65495L6.34486 11.7825C6.69375 12.1305 7.10782 12.4063 7.56338 12.5942C8.01894 12.7821 8.50707 12.8783 8.99986 12.8775Z" fill="#848484"/>
</g>
<defs>
<clipPath id="clip0_259_2389">
<rect width="18" height="18" fill="white" transform="matrix(-1 0 0 1 18 0)"/>
</clipPath>
</defs>
</svg>
