<svg width="25" height="25" viewBox="0 0 25 25" fill="none" xmlns="http://www.w3.org/2000/svg">
<path d="M21.875 0H3.125C2.2962 0 1.50134 0.32924 0.915291 0.915291C0.32924 1.50134 0 2.2962 0 3.125L0 25H25V3.125C25 2.2962 24.6708 1.50134 24.0847 0.915291C23.4987 0.32924 22.7038 0 21.875 0ZM3.125 2.08333H21.875C22.1513 2.08333 22.4162 2.19308 22.6116 2.38843C22.8069 2.58378 22.9167 2.84873 22.9167 3.125V21.4438L11.5844 10.1115C10.9984 9.52561 10.2036 9.1965 9.375 9.1965C8.54636 9.1965 7.75165 9.52561 7.16563 10.1115L2.08333 15.1937V3.125C2.08333 2.84873 2.19308 2.58378 2.38843 2.38843C2.58378 2.19308 2.84873 2.08333 3.125 2.08333ZM2.08333 18.1396L8.63854 11.5844C8.83388 11.3891 9.09879 11.2794 9.375 11.2794C9.65121 11.2794 9.91612 11.3891 10.1115 11.5844L21.4438 22.9167H2.08333V18.1396Z" fill="#918F8F"/>
<path d="M16.667 10.4166C17.2851 10.4166 17.8892 10.2333 18.4031 9.88997C18.9171 9.54659 19.3176 9.05853 19.5541 8.48751C19.7906 7.91649 19.8525 7.28816 19.7319 6.68197C19.6114 6.07578 19.3137 5.51896 18.8767 5.08192C18.4397 4.64488 17.8828 4.34725 17.2767 4.22667C16.6705 4.10609 16.0421 4.16798 15.4711 4.4045C14.9001 4.64103 14.412 5.04157 14.0686 5.55547C13.7253 6.06937 13.542 6.67356 13.542 7.29163C13.542 8.12043 13.8712 8.91529 14.4573 9.50134C15.0433 10.0874 15.8382 10.4166 16.667 10.4166ZM16.667 6.24996C16.873 6.24996 17.0744 6.31105 17.2457 6.42551C17.417 6.53997 17.5505 6.70266 17.6294 6.893C17.7082 7.08334 17.7288 7.29278 17.6886 7.49485C17.6485 7.69691 17.5492 7.88252 17.4036 8.0282C17.2579 8.17388 17.0723 8.27309 16.8702 8.31328C16.6681 8.35347 16.4587 8.33284 16.2684 8.254C16.078 8.17516 15.9153 8.04165 15.8009 7.87035C15.6864 7.69905 15.6253 7.49765 15.6253 7.29163C15.6253 7.01536 15.7351 6.75041 15.9304 6.55506C16.1258 6.35971 16.3907 6.24996 16.667 6.24996Z" fill="#918F8F"/>
</svg>
