<svg width="16" height="16" viewBox="0 0 16 16" fill="none" xmlns="http://www.w3.org/2000/svg">
<g clip-path="url(#clip0_495_1588)">
<path d="M3.33333 0.666626H12.6667C13.5504 0.667685 14.3976 1.01921 15.0225 1.64411C15.6474 2.269 15.9989 3.11623 16 3.99996V12C15.9989 12.8837 15.6474 13.7309 15.0225 14.3558C14.3976 14.9807 13.5504 15.3322 12.6667 15.3333H3.33333C2.4496 15.3322 1.60237 14.9807 0.977479 14.3558C0.352587 13.7309 0.00105762 12.8837 0 12V3.99996C0.00105762 3.11623 0.352587 2.269 0.977479 1.64411C1.60237 1.01921 2.4496 0.667685 3.33333 0.666626ZM12.6667 1.99996H3.33333C2.93414 2.00074 2.54432 2.12097 2.21403 2.34516C1.88374 2.56935 1.6281 2.88726 1.48 3.25796L6.58533 8.36396C6.96105 8.73817 7.46972 8.94827 8 8.94827C8.53028 8.94827 9.03895 8.73817 9.41467 8.36396L14.52 3.25796C14.3719 2.88726 14.1163 2.56935 13.786 2.34516C13.4557 2.12097 13.0659 2.00074 12.6667 1.99996ZM3.33333 14H12.6667C13.1971 14 13.7058 13.7892 14.0809 13.4142C14.456 13.0391 14.6667 12.5304 14.6667 12V4.99996L10.3573 9.30663C9.73158 9.9308 8.88383 10.2813 8 10.2813C7.11617 10.2813 6.26842 9.9308 5.64267 9.30663L1.33333 4.99996V12C1.33333 12.5304 1.54405 13.0391 1.91912 13.4142C2.29419 13.7892 2.8029 14 3.33333 14Z" fill="black"/>
</g>
<defs>
<clipPath id="clip0_495_1588">
<rect width="16" height="16" fill="white" transform="matrix(-1 0 0 1 16 0)"/>
</clipPath>
</defs>
</svg>
