<svg width="22" height="18" viewBox="0 0 22 18" fill="none" xmlns="http://www.w3.org/2000/svg">
<path d="M11 12.6667C13.0222 12.6667 14.6667 11.0222 14.6667 9C14.6667 6.97783 13.0222 5.33333 11 5.33333C8.97783 5.33333 7.33333 6.97783 7.33333 9C7.33333 11.0222 8.97783 12.6667 11 12.6667ZM11 7.16667C12.0111 7.16667 12.8333 7.98892 12.8333 9C12.8333 10.0111 12.0111 10.8333 11 10.8333C9.98892 10.8333 9.16667 10.0111 9.16667 9C9.16667 7.98892 9.98892 7.16667 11 7.16667ZM17.4167 4.41667C17.9227 4.41667 18.3333 4.82733 18.3333 5.33333C18.3333 5.83933 17.9227 6.25 17.4167 6.25C16.9107 6.25 16.5 5.83933 16.5 5.33333C16.5 4.82733 16.9107 4.41667 17.4167 4.41667ZM5.5 7.16667C5.5 7.67267 5.08933 8.08333 4.58333 8.08333C4.07733 8.08333 3.66666 7.67267 3.66666 7.16667C3.66666 6.66067 4.07733 6.25 4.58333 6.25C5.08933 6.25 5.5 6.66067 5.5 7.16667ZM17.4167 9.91667C17.9227 9.91667 18.3333 10.3273 18.3333 10.8333C18.3333 11.3393 17.9227 11.75 17.4167 11.75C16.9107 11.75 16.5 11.3393 16.5 10.8333C16.5 10.3273 16.9107 9.91667 17.4167 9.91667ZM5.5 12.6667C5.5 13.1727 5.08933 13.5833 4.58333 13.5833C4.07733 13.5833 3.66666 13.1727 3.66666 12.6667C3.66666 12.1607 4.07733 11.75 4.58333 11.75C5.08933 11.75 5.5 12.1607 5.5 12.6667ZM6.41575 17.25C7.91908 17.25 9.61308 16.766 11.2512 16.2976C12.7673 15.864 14.3357 15.4167 15.5824 15.4167C18.0858 15.4167 20.669 16.6111 20.6956 16.6221L22 17.2326V4.5615C22 3.5275 21.4335 2.5925 20.5196 2.12042C19.305 1.49433 17.4643 0.749084 15.5824 0.749084C14.0589 0.749084 12.5886 1.2395 11.1677 1.7125C9.82666 2.15983 8.55983 2.58242 7.33333 2.58242C6.06283 2.58242 5.02608 2.25058 4.19283 1.98383C3.916 1.89492 3.66392 1.81425 3.43383 1.75375C2.61066 1.53467 1.75175 1.70975 1.07525 2.23042C0.391415 2.75658 -0.000917435 3.55317 -0.000917435 4.41575V15.677L0.537165 15.9208C0.657249 15.9758 3.50075 17.25 6.41575 17.25ZM15.5824 13.5833C14.0791 13.5833 12.3851 14.0673 10.747 14.5357C9.22992 14.9693 7.66242 15.4167 6.41575 15.4167C4.58242 15.4167 2.72158 14.8071 1.83241 14.4707V4.41667C1.83241 4.127 1.96441 3.86025 2.19358 3.68425C2.32375 3.58433 2.59875 3.43125 2.96542 3.5275C3.168 3.58158 3.39075 3.65308 3.63458 3.731C4.53842 4.01975 5.77775 4.41667 7.33333 4.41667C8.85683 4.41667 10.3272 3.92625 11.748 3.45325C13.0891 3.00592 14.3559 2.58333 15.5824 2.58333C17.1765 2.58333 18.8338 3.31483 19.6799 3.75025C19.9806 3.90517 20.1676 4.21592 20.1676 4.5615V14.445C19.0401 14.0536 17.3232 13.5833 15.5824 13.5833Z" fill="white"/>
</svg>
