<svg width="20" height="20" viewBox="0 0 20 20" fill="none" xmlns="http://www.w3.org/2000/svg">
<path d="M8.33376 20C8.51406 20 8.68951 19.9415 8.83376 19.8333L12.1671 17.3333C12.2706 17.2557 12.3546 17.1551 12.4124 17.0393C12.4703 16.9236 12.5004 16.796 12.5004 16.6667V11.9833L18.3471 5.40583C18.7623 4.9374 19.0334 4.35901 19.1279 3.7402C19.2223 3.12138 19.136 2.48846 18.8793 1.91751C18.6227 1.34656 18.2066 0.861882 17.6811 0.521721C17.1556 0.181561 16.5431 0.000395349 15.9171 0L4.08376 0C3.45783 0.000734209 2.84543 0.182199 2.32016 0.522589C1.79488 0.862978 1.37907 1.34781 1.12269 1.91882C0.86632 2.48983 0.780291 3.12273 0.874941 3.74146C0.969593 4.36018 1.2409 4.93841 1.65626 5.40667L7.50042 11.9833V19.1667C7.50042 19.3877 7.58822 19.5996 7.7445 19.7559C7.90078 19.9122 8.11274 20 8.33376 20ZM10.8338 16.25L9.16709 17.5V11.6667C9.16692 11.4626 9.0919 11.2657 8.95625 11.1133L2.89959 4.29917C2.69763 4.0709 2.56585 3.7892 2.52006 3.48788C2.47427 3.18655 2.51642 2.87842 2.64145 2.60046C2.76648 2.32251 2.96908 2.08655 3.22492 1.92091C3.48076 1.75527 3.77897 1.66699 4.08376 1.66667H15.9171C16.2217 1.66713 16.5197 1.75546 16.7754 1.92105C17.0311 2.08665 17.2336 2.3225 17.3586 2.60029C17.4836 2.87809 17.5258 3.18605 17.4802 3.48723C17.4345 3.78842 17.303 4.07004 17.1013 4.29833L11.0438 11.1133C10.9084 11.2659 10.8337 11.4627 10.8338 11.6667V16.25Z" fill="#625F5F"/>
</svg>
