<svg width="23" height="23" viewBox="0 0 23 23" fill="none" xmlns="http://www.w3.org/2000/svg">
<path d="M21.138 5.01202L14.0712 1.6454C12.5157 0.716232 10.5795 0.699745 9.00834 1.60227L1.86208 5.01202C1.83526 5.02545 1.80746 5.03983 1.78158 5.05515C0.0856903 6.02483 -0.503056 8.18571 0.466628 9.8816C0.795321 10.4565 1.27882 10.9276 1.86208 11.2412L3.83339 12.1804V16.8762C3.83456 18.976 5.20085 20.8311 7.20576 21.4551C8.60099 21.8588 10.0477 22.0564 11.5001 22.0416C12.9522 22.0579 14.3989 21.8619 15.7944 21.4599C17.7993 20.8359 19.1656 18.9808 19.1668 16.881V12.1785L21.0834 11.2623V19.1666C21.0834 19.6959 21.5125 20.1249 22.0418 20.1249C22.571 20.1249 23.0001 19.6959 23.0001 19.1666V7.66659C23.0064 6.54125 22.1179 5.50167 21.138 5.01202ZM17.25 16.881C17.2505 18.137 16.4356 19.2479 15.2375 19.6247C14.0226 19.9719 12.7635 20.1404 11.5 20.125C10.2365 20.1404 8.97748 19.9719 7.76252 19.6247C6.56441 19.2479 5.74953 18.137 5.75002 16.881V13.0937L8.92883 14.6079C9.71317 15.0736 10.609 15.3184 11.5211 15.3161C12.3894 15.3222 13.243 15.0924 13.9908 14.651L17.25 13.0936V16.881ZM20.3167 9.5114L13.089 12.9614C12.0812 13.5482 10.832 13.5316 9.84021 12.9183L2.76865 9.55452C1.98041 9.12947 1.68599 8.14591 2.11104 7.35771C2.25479 7.09114 2.47032 6.87017 2.73321 6.71977L9.9159 3.28895C10.924 2.70344 12.1725 2.72002 13.1646 3.33208L20.2314 6.6987C20.7511 6.98728 21.0762 7.53223 21.0833 8.12663C21.0843 8.68968 20.7944 9.21329 20.3167 9.5114Z" fill="#45A5B6"/>
</svg>
