<svg width="11" height="10" viewBox="0 0 11 10" fill="none" xmlns="http://www.w3.org/2000/svg">
<path d="M3.18269 0.739502C3.65848 0.746903 4.1239 0.879722 4.53194 1.12455C4.93999 1.36937 5.2762 1.71753 5.50663 2.13387C5.73707 1.71753 6.07328 1.36937 6.48132 1.12455C6.88936 0.879722 7.35478 0.746903 7.83058 0.739502C8.58905 0.772456 9.30366 1.10426 9.81827 1.66242C10.3329 2.22058 10.6057 2.95972 10.5771 3.71838C10.5771 5.63964 8.5548 7.73795 6.85875 9.16063C6.48006 9.47885 6.00127 9.65332 5.50663 9.65332C5.01199 9.65332 4.5332 9.47885 4.15452 9.16063C2.45846 7.73795 0.436211 5.63964 0.436211 3.71838C0.407583 2.95972 0.680376 2.22058 1.19499 1.66242C1.70961 1.10426 2.42421 0.772456 3.18269 0.739502Z" fill="#ADADAD"/>
</svg>
