<svg width="23" height="22" viewBox="0 0 23 22" fill="none" xmlns="http://www.w3.org/2000/svg">
<path d="M3.83335 21.0834C3.45553 21.0844 3.08126 21.0104 2.7322 20.8658C2.38314 20.7212 2.06622 20.5089 1.79977 20.241L0.320102 18.9242C0.13024 18.755 0.0153985 18.5172 0.000840989 18.2633C-0.0137165 18.0093 0.0732025 17.76 0.242477 17.5701C0.411751 17.3803 0.649515 17.2654 0.903463 17.2509C1.15741 17.2363 1.40674 17.3232 1.5966 17.4925L3.11556 18.8476C3.20252 18.9452 3.30853 19.024 3.42709 19.0792C3.54565 19.1343 3.67424 19.1646 3.80494 19.1682C3.93565 19.1718 4.06571 19.1486 4.18711 19.1001C4.30852 19.0515 4.41871 18.9786 4.51089 18.8859L7.96089 15.5979C8.05101 15.5062 8.15863 15.4336 8.27737 15.3844C8.39611 15.3352 8.52353 15.3104 8.65206 15.3115C8.78058 15.3125 8.90758 15.3394 9.0255 15.3905C9.14342 15.4417 9.24985 15.516 9.33846 15.6091C9.42706 15.7022 9.49603 15.8122 9.54127 15.9325C9.5865 16.0528 9.60707 16.181 9.60175 16.3094C9.59644 16.4378 9.56534 16.5639 9.51032 16.68C9.4553 16.7962 9.37747 16.9001 9.28148 16.9855L5.84585 20.2573C5.58113 20.5205 5.26714 20.7289 4.92182 20.8706C4.5765 21.0124 4.20663 21.0847 3.83335 21.0834ZM22.0417 20.125H12.4584C12.2042 20.125 11.9604 20.0241 11.7807 19.8443C11.601 19.6646 11.5 19.4209 11.5 19.1667C11.5 18.9125 11.601 18.6688 11.7807 18.4891C11.9604 18.3093 12.2042 18.2084 12.4584 18.2084H22.0417C22.2959 18.2084 22.5396 18.3093 22.7193 18.4891C22.8991 18.6688 23 18.9125 23 19.1667C23 19.4209 22.8991 19.6646 22.7193 19.8443C22.5396 20.0241 22.2959 20.125 22.0417 20.125ZM3.83335 13.4167C3.45553 13.4177 3.08126 13.3438 2.7322 13.1992C2.38314 13.0546 2.06622 12.8422 1.79977 12.5743L0.28081 11.0554C0.106242 10.8746 0.00964752 10.6325 0.011831 10.3813C0.0140145 10.13 0.114801 9.88964 0.292484 9.71196C0.470167 9.53427 0.710529 9.43349 0.961801 9.4313C1.21307 9.42912 1.45515 9.52571 1.63589 9.70028L3.15581 11.2192C3.33825 11.3937 3.58094 11.491 3.83335 11.491C4.08577 11.491 4.32846 11.3937 4.51089 11.2192L7.96089 7.9312C8.14491 7.75557 8.39116 7.66024 8.64546 7.66617C8.89977 7.6721 9.14131 7.77881 9.31694 7.96282C9.49256 8.14684 9.5879 8.39309 9.58197 8.64739C9.57604 8.9017 9.46933 9.14324 9.28531 9.31887L5.84585 12.5906C5.58113 12.8538 5.26714 13.0622 4.92182 13.204C4.5765 13.3457 4.20663 13.418 3.83335 13.4167ZM22.0417 12.4584H12.4584C12.2042 12.4584 11.9604 12.3574 11.7807 12.1777C11.601 11.998 11.5 11.7542 11.5 11.5C11.5 11.2459 11.601 11.0021 11.7807 10.8224C11.9604 10.6427 12.2042 10.5417 12.4584 10.5417H22.0417C22.2959 10.5417 22.5396 10.6427 22.7193 10.8224C22.8991 11.0021 23 11.2459 23 11.5C23 11.7542 22.8991 11.998 22.7193 12.1777C22.5396 12.3574 22.2959 12.4584 22.0417 12.4584ZM3.83335 5.75003C3.45553 5.75102 3.08126 5.67708 2.7322 5.53249C2.38314 5.3879 2.06622 5.17553 1.79977 4.90766L0.320102 3.59091C0.13024 3.42163 0.0153985 3.18387 0.000840989 2.92992C-0.0137165 2.67597 0.0732025 2.42664 0.242477 2.23678C0.411751 2.04692 0.649515 1.93208 0.903463 1.91752C1.15741 1.90296 1.40674 1.98988 1.5966 2.15916L3.11556 3.51424C3.20252 3.61189 3.30853 3.69071 3.42709 3.74586C3.54565 3.801 3.67424 3.8313 3.80494 3.8349C3.93565 3.83849 4.06571 3.81529 4.18711 3.76674C4.30852 3.71819 4.41871 3.6453 4.51089 3.55257L7.96473 0.264532C8.15045 0.0991911 8.39316 0.0125087 8.6416 0.0227936C8.89004 0.0330784 9.12476 0.139525 9.29618 0.319651C9.4676 0.499776 9.56229 0.739477 9.56026 0.988123C9.55824 1.23677 9.45964 1.47489 9.28531 1.6522L5.84585 4.92395C5.58113 5.18712 5.26714 5.39554 4.92182 5.53729C4.5765 5.67903 4.20663 5.75133 3.83335 5.75003ZM22.0417 4.7917H12.4584C12.2042 4.7917 11.9604 4.69073 11.7807 4.51101C11.601 4.33129 11.5 4.08753 11.5 3.83337C11.5 3.5792 11.601 3.33544 11.7807 3.15572C11.9604 2.976 12.2042 2.87503 12.4584 2.87503H22.0417C22.2959 2.87503 22.5396 2.976 22.7193 3.15572C22.8991 3.33544 23 3.5792 23 3.83337C23 4.08753 22.8991 4.33129 22.7193 4.51101C22.5396 4.69073 22.2959 4.7917 22.0417 4.7917Z" fill="#349EB0"/>
</svg>
