<svg width="22" height="21" viewBox="0 0 22 21" fill="none" xmlns="http://www.w3.org/2000/svg">
<path d="M3.66761 5.49998C3.30622 5.50093 2.94823 5.43021 2.61434 5.2919C2.28046 5.1536 1.97731 4.95046 1.72245 4.69423L0.269531 3.24132L1.5657 1.94515L3.01953 3.39807C3.19403 3.56493 3.42617 3.65805 3.66761 3.65805C3.90906 3.65805 4.14119 3.56493 4.3157 3.39807L7.60287 0.111816L8.89903 1.40798L5.61186 4.69423C5.35723 4.95051 5.05426 5.15369 4.72051 5.29201C4.38677 5.43032 4.02888 5.50101 3.66761 5.49998ZM22.0009 2.74998H11.0009V4.58332H22.0009V2.74998ZM5.61186 12.0276L8.89903 8.74132L7.60287 7.44515L4.3157 10.7314C4.14119 10.8983 3.90906 10.9914 3.66761 10.9914C3.42617 10.9914 3.19403 10.8983 3.01953 10.7314L1.5657 9.27848L0.269531 10.5747L1.72245 12.0276C1.97782 12.283 2.28099 12.4856 2.61467 12.6238C2.94835 12.762 3.30598 12.8332 3.66716 12.8332C4.02833 12.8332 4.38597 12.762 4.71964 12.6238C5.05332 12.4856 5.3565 12.283 5.61186 12.0276ZM22.0009 10.0833H11.0009V11.9166H22.0009V10.0833ZM5.61186 19.3609L8.89903 16.0746L7.60287 14.7785L4.3157 18.0647C4.14119 18.2316 3.90906 18.3247 3.66761 18.3247C3.42617 18.3247 3.19403 18.2316 3.01953 18.0647L1.5657 16.6118L0.269531 17.908L1.72245 19.3609C1.97782 19.6163 2.28099 19.8189 2.61467 19.9571C2.94835 20.0954 3.30598 20.1665 3.66716 20.1665C4.02833 20.1665 4.38597 20.0954 4.71964 19.9571C5.05332 19.8189 5.3565 19.6163 5.61186 19.3609ZM22.0009 17.4167H11.0009V19.25H22.0009V17.4167Z" fill="black"/>
</svg>
