<svg width="16" height="16" viewBox="0 0 16 16" fill="none" xmlns="http://www.w3.org/2000/svg">
<g clip-path="url(#clip0_379_314)">
<path d="M8 0.0139771C9.77907 0.0160946 11.4847 0.72381 12.7426 1.98186C14.0005 3.23992 14.7081 4.94558 14.71 6.72464C14.71 10.2406 9.266 14.944 8.64333 15.4693L7.99867 16.014L7.354 15.4693C6.73267 14.944 1.28733 10.2406 1.28733 6.72464C1.28928 4.94511 1.99719 3.23905 3.25569 1.98092C4.5142 0.722793 6.22047 0.0153887 8 0.0139771ZM8 13.376C10.0433 11.5146 12.7113 8.49064 12.7113 6.72464C12.7113 5.47512 12.215 4.27677 11.3314 3.39323C10.4479 2.50968 9.24952 2.01331 8 2.01331C6.75048 2.01331 5.55213 2.50968 4.66858 3.39323C3.78504 4.27677 3.28867 5.47512 3.28867 6.72464C3.28867 8.48731 5.95733 11.5126 8 13.376Z" fill="#45A4B8"/>
<path d="M8 8.66598C6.89654 8.66598 6.002 7.77145 6.002 6.66798C6.002 5.56452 6.89654 4.66998 8 4.66998C9.10346 4.66998 9.998 5.56452 9.998 6.66798C9.998 7.77145 9.10346 8.66598 8 8.66598Z" fill="#45A4B8"/>
</g>
<defs>
<clipPath id="clip0_379_314">
<rect width="16" height="16" fill="white" transform="matrix(-1 0 0 1 16 0)"/>
</clipPath>
</defs>
</svg>
