<svg width="24" height="25" viewBox="0 0 24 25" fill="none" xmlns="http://www.w3.org/2000/svg">
<path d="M0.878986 9.06911L8.46399 1.48311C9.40274 0.5471 10.6743 0.0214844 12 0.0214844C13.3256 0.0214844 14.5972 0.5471 15.536 1.48311L23.121 9.06911C23.4006 9.3469 23.6222 9.67741 23.7731 10.0415C23.924 10.4056 24.0011 10.796 24 11.1901V21.0071C24 21.8028 23.6839 22.5658 23.1213 23.1284C22.5587 23.691 21.7956 24.0071 21 24.0071H2.99999C2.20434 24.0071 1.44127 23.691 0.878666 23.1284C0.316055 22.5658 -1.52588e-05 21.8028 -1.52588e-05 21.0071V11.1901C-0.00113678 10.796 0.0759811 10.4056 0.22687 10.0415C0.377756 9.67741 0.599411 9.3469 0.878986 9.06911ZM8.99999 22.0071H15V18.0731C15 17.2775 14.6839 16.5144 14.1213 15.9518C13.5587 15.3892 12.7956 15.0731 12 15.0731C11.2043 15.0731 10.4413 15.3892 9.87866 15.9518C9.31606 16.5144 8.99999 17.2775 8.99999 18.0731V22.0071ZM1.99999 21.0071C1.99999 21.2723 2.10534 21.5267 2.29288 21.7142C2.48042 21.9018 2.73477 22.0071 2.99999 22.0071H6.99999V18.0731C6.99999 16.747 7.52677 15.4753 8.46445 14.5376C9.40213 13.5999 10.6739 13.0731 12 13.0731C13.3261 13.0731 14.5978 13.5999 15.5355 14.5376C16.4732 15.4753 17 16.747 17 18.0731V22.0071H21C21.2652 22.0071 21.5196 21.9018 21.7071 21.7142C21.8946 21.5267 22 21.2723 22 21.0071V11.1901C21.9991 10.9251 21.8938 10.6711 21.707 10.4831L14.122 2.90011C13.5583 2.33904 12.7953 2.02405 12 2.02405C11.2047 2.02405 10.4417 2.33904 9.87799 2.90011L2.29299 10.4861C2.1069 10.6734 2.0017 10.9261 1.99999 11.1901V21.0071Z" fill="#01A449"/>
</svg>
