<svg width="26" height="26" viewBox="0 0 26 26" fill="none" xmlns="http://www.w3.org/2000/svg">
<g clip-path="url(#clip0_380_1304)">
<path d="M26.0002 12.1844C25.8436 9.64939 24.9485 7.21568 23.4254 5.18325C21.9022 3.15082 19.8177 1.60854 17.4286 0.746534C15.0395 -0.115472 12.4505 -0.259516 9.98052 0.332159C7.51059 0.923835 5.26778 2.22536 3.52861 4.07629C1.78944 5.92722 0.629924 8.24663 0.193017 10.7486C-0.24389 13.2505 0.060909 15.8257 1.06984 18.1565C2.07877 20.4873 3.74772 22.4719 5.87095 23.8657C7.99417 25.2595 10.4788 26.0014 13.0187 26.0001H20.5836C22.0197 25.9987 23.3966 25.4275 24.4122 24.412C25.4277 23.3965 25.9988 22.0196 26.0002 20.5835V12.1844ZM23.8336 20.5835C23.8336 21.4454 23.4912 22.2721 22.8817 22.8816C22.2722 23.491 21.4455 23.8335 20.5836 23.8335H13.0187C11.49 23.8328 9.97866 23.5099 8.58317 22.8859C7.18768 22.2619 5.93938 21.3507 4.91966 20.2119C3.89502 19.0736 3.12559 17.7294 2.66296 16.2694C2.20034 14.8094 2.05522 13.2674 2.23733 11.7467C2.52488 9.34814 3.60253 7.11349 5.30039 5.39504C6.99825 3.67659 9.21974 2.57207 11.6147 2.25562C12.0818 2.19707 12.5522 2.1674 13.023 2.16679C15.5477 2.1599 17.9942 3.04202 19.9336 4.65846C21.0662 5.59981 21.9959 6.76137 22.6663 8.07272C23.3367 9.38407 23.7338 10.8179 23.8336 12.2873V20.5835Z" fill="#728297"/>
<path d="M8.66634 9.75016H12.9997C13.287 9.75016 13.5625 9.63603 13.7657 9.43286C13.9689 9.2297 14.083 8.95415 14.083 8.66683C14.083 8.37951 13.9689 8.10396 13.7657 7.9008C13.5625 7.69763 13.287 7.5835 12.9997 7.5835H8.66634C8.37902 7.5835 8.10347 7.69763 7.90031 7.9008C7.69714 8.10396 7.58301 8.37951 7.58301 8.66683C7.58301 8.95415 7.69714 9.2297 7.90031 9.43286C8.10347 9.63603 8.37902 9.75016 8.66634 9.75016Z" fill="#728297"/>
<path d="M17.333 11.9165H8.66634C8.37902 11.9165 8.10347 12.0306 7.90031 12.2338C7.69714 12.437 7.58301 12.7125 7.58301 12.9998C7.58301 13.2872 7.69714 13.5627 7.90031 13.7659C8.10347 13.969 8.37902 14.0832 8.66634 14.0832H17.333C17.6203 14.0832 17.8959 13.969 18.099 13.7659C18.3022 13.5627 18.4163 13.2872 18.4163 12.9998C18.4163 12.7125 18.3022 12.437 18.099 12.2338C17.8959 12.0306 17.6203 11.9165 17.333 11.9165Z" fill="#728297"/>
<path d="M17.333 16.25H8.66634C8.37902 16.25 8.10347 16.3641 7.90031 16.5673C7.69714 16.7705 7.58301 17.046 7.58301 17.3333C7.58301 17.6207 7.69714 17.8962 7.90031 18.0994C8.10347 18.3025 8.37902 18.4167 8.66634 18.4167H17.333C17.6203 18.4167 17.8959 18.3025 18.099 18.0994C18.3022 17.8962 18.4163 17.6207 18.4163 17.3333C18.4163 17.046 18.3022 16.7705 18.099 16.5673C17.8959 16.3641 17.6203 16.25 17.333 16.25Z" fill="#728297"/>
</g>
<defs>
<clipPath id="clip0_380_1304">
<rect width="26" height="26" fill="white"/>
</clipPath>
</defs>
</svg>
