<svg width="25" height="26" viewBox="0 0 25 26" fill="none" xmlns="http://www.w3.org/2000/svg">
<g clip-path="url(#clip0_380_1312)">
<path d="M12.183 12.6945L10.2434 14.6499C9.91217 14.9944 9.47259 15.1678 9.03197 15.1678C8.58717 15.1678 8.1403 14.9912 7.79967 14.638L7.0903 13.9295C6.67572 13.5146 6.66217 12.8288 7.06113 12.3977C7.46009 11.9665 8.12051 11.9535 8.53405 12.3673L9.02676 12.8603L10.733 11.1399C11.1455 10.725 11.8049 10.7337 12.2059 11.1638C12.6059 11.5928 12.5965 12.2774 12.183 12.6945ZM16.6663 18.4167H13.5413C12.9663 18.4167 12.4997 18.902 12.4997 19.5C12.4997 20.098 12.9663 20.5833 13.5413 20.5833H16.6663C17.2413 20.5833 17.708 20.098 17.708 19.5C17.708 18.902 17.2413 18.4167 16.6663 18.4167ZM16.6663 5.41667H13.5413C12.9663 5.41667 12.4997 5.902 12.4997 6.5C12.4997 7.098 12.9663 7.58333 13.5413 7.58333H16.6663C17.2413 7.58333 17.708 7.098 17.708 6.5C17.708 5.902 17.2413 5.41667 16.6663 5.41667ZM16.6663 11.9167H14.583C14.008 11.9167 13.5413 12.402 13.5413 13C13.5413 13.598 14.008 14.0833 14.583 14.0833H16.6663C17.2413 14.0833 17.708 13.598 17.708 13C17.708 12.402 17.2413 11.9167 16.6663 11.9167ZM8.85384 17.875C7.99134 17.875 7.29134 18.603 7.29134 19.5C7.29134 20.397 7.99134 21.125 8.85384 21.125C9.71634 21.125 10.4163 20.397 10.4163 19.5C10.4163 18.603 9.71634 17.875 8.85384 17.875ZM8.85384 8.125C9.71634 8.125 10.4163 7.397 10.4163 6.5C10.4163 5.603 9.71634 4.875 8.85384 4.875C7.99134 4.875 7.29134 5.603 7.29134 6.5C7.29134 7.397 7.99134 8.125 8.85384 8.125ZM22.9163 5.41667V20.5833C22.9163 23.5701 20.5799 26 17.708 26H7.29134C4.41947 26 2.08301 23.5701 2.08301 20.5833V5.41667C2.08301 2.42992 4.41947 0 7.29134 0H17.708C20.5799 0 22.9163 2.42992 22.9163 5.41667ZM20.833 5.41667C20.833 3.62483 19.4309 2.16667 17.708 2.16667H7.29134C5.56842 2.16667 4.16634 3.62483 4.16634 5.41667V20.5833C4.16634 22.3752 5.56842 23.8333 7.29134 23.8333H17.708C19.4309 23.8333 20.833 22.3752 20.833 20.5833V5.41667Z" fill="#728297"/>
</g>
<defs>
<clipPath id="clip0_380_1312">
<rect width="25" height="26" fill="white"/>
</clipPath>
</defs>
</svg>
