<svg width="18" height="18" viewBox="0 0 18 18" fill="none" xmlns="http://www.w3.org/2000/svg">
<g clip-path="url(#clip0_259_2718)">
<path d="M11.25 18H6.75C4.68225 18 3 16.3177 3 14.25V3.75C3 1.68225 4.68225 0 6.75 0H11.25C13.3178 0 15 1.68225 15 3.75V14.25C15 16.3177 13.3178 18 11.25 18ZM6.75 1.5C5.5095 1.5 4.5 2.5095 4.5 3.75V14.25C4.5 15.4905 5.5095 16.5 6.75 16.5H11.25C12.4905 16.5 13.5 15.4905 13.5 14.25V3.75C13.5 2.5095 12.4905 1.5 11.25 1.5H6.75ZM10.5 14.25C10.5 13.836 10.164 13.5 9.75 13.5H8.25C7.836 13.5 7.5 13.836 7.5 14.25C7.5 14.664 7.836 15 8.25 15H9.75C10.164 15 10.5 14.664 10.5 14.25Z" fill="#706E6E"/>
</g>
<defs>
<clipPath id="clip0_259_2718">
<rect width="18" height="18" fill="white"/>
</clipPath>
</defs>
</svg>
