<svg width="16" height="22" viewBox="0 0 16 22" fill="none" xmlns="http://www.w3.org/2000/svg">
<path d="M10.7503 22H5.25033C2.72308 22 0.666992 19.9439 0.666992 17.4167V4.58333C0.666992 2.05608 2.72308 0 5.25033 0H10.7503C13.2776 0 15.3337 2.05608 15.3337 4.58333V17.4167C15.3337 19.9439 13.2776 22 10.7503 22ZM5.25033 1.83333C3.73416 1.83333 2.50033 3.06717 2.50033 4.58333V17.4167C2.50033 18.9328 3.73416 20.1667 5.25033 20.1667H10.7503C12.2665 20.1667 13.5003 18.9328 13.5003 17.4167V4.58333C13.5003 3.06717 12.2665 1.83333 10.7503 1.83333H5.25033ZM9.83366 17.4167C9.83366 16.9107 9.42299 16.5 8.91699 16.5H7.08366C6.57766 16.5 6.16699 16.9107 6.16699 17.4167C6.16699 17.9227 6.57766 18.3333 7.08366 18.3333H8.91699C9.42299 18.3333 9.83366 17.9227 9.83366 17.4167Z" fill="#706E6E"/>
</svg>
