<svg width="22" height="22" viewBox="0 0 22 22" fill="none" xmlns="http://www.w3.org/2000/svg">
<g clip-path="url(#clip0_1_4875)">
<path d="M4.58342 7.722V6.41667C4.58342 4.71486 5.25946 3.08276 6.46281 1.8794C7.66617 0.67604 9.29828 0 11.0001 0C12.7019 0 14.334 0.67604 15.5374 1.8794C16.7407 3.08276 17.4167 4.71486 17.4167 6.41667V7.722C18.2332 8.07831 18.9281 8.66481 19.4165 9.40978C19.9049 10.1547 20.1656 11.0259 20.1667 11.9167V17.4167C20.1653 18.6318 19.6819 19.7967 18.8227 20.656C17.9635 21.5152 16.7985 21.9985 15.5834 22H6.41675C5.20162 21.9985 4.03668 21.5152 3.17745 20.656C2.31822 19.7967 1.83487 18.6318 1.83342 17.4167V11.9167C1.83459 11.0259 2.09531 10.1547 2.58371 9.40978C3.0721 8.66481 3.767 8.07831 4.58342 7.722ZM15.5834 6.41667C15.5834 5.20109 15.1005 4.0353 14.241 3.17576C13.3814 2.31622 12.2157 1.83333 11.0001 1.83333C9.78451 1.83333 8.61872 2.31622 7.75918 3.17576C6.89963 4.0353 6.41675 5.20109 6.41675 6.41667V7.33333H15.5834V6.41667ZM3.66675 17.4167C3.66675 18.146 3.95648 18.8455 4.47221 19.3612C4.98793 19.8769 5.6874 20.1667 6.41675 20.1667H15.5834C16.3128 20.1667 17.0122 19.8769 17.528 19.3612C18.0437 18.8455 18.3334 18.146 18.3334 17.4167V11.9167C18.3334 11.1873 18.0437 10.4878 17.528 9.97212C17.0122 9.4564 16.3128 9.16667 15.5834 9.16667H6.41675C5.6874 9.16667 4.98793 9.4564 4.47221 9.97212C3.95648 10.4878 3.66675 11.1873 3.66675 11.9167V17.4167Z" fill="black"/>
<path d="M11.0001 12.8334C11.2432 12.8334 11.4764 12.93 11.6483 13.1019C11.8202 13.2738 11.9167 13.5069 11.9167 13.75V15.5834C11.9167 15.8265 11.8202 16.0596 11.6483 16.2316C11.4764 16.4035 11.2432 16.5 11.0001 16.5C10.757 16.5 10.5238 16.4035 10.3519 16.2316C10.18 16.0596 10.0834 15.8265 10.0834 15.5834V13.75C10.0834 13.5069 10.18 13.2738 10.3519 13.1019C10.5238 12.93 10.757 12.8334 11.0001 12.8334Z" fill="black"/>
</g>
<defs>
<clipPath id="clip0_1_4875">
<rect width="22" height="22" fill="white" transform="matrix(-1 0 0 1 22 0)"/>
</clipPath>
</defs>
</svg>
