<svg width="17" height="17" viewBox="0 0 17 17" fill="none" xmlns="http://www.w3.org/2000/svg">
<path d="M7.23796 16.977C7.01063 16.977 6.82463 16.9047 6.67996 16.76C6.53529 16.6153 6.46296 16.4293 6.46296 16.202V10.529H0.944961C0.717628 10.529 0.521294 10.4567 0.355961 10.312C0.211294 10.1673 0.138961 9.98133 0.138961 9.754V7.491C0.138961 7.26367 0.211294 7.07767 0.355961 6.933C0.521294 6.78833 0.717628 6.716 0.944961 6.716H6.46296V1.198C6.46296 0.970665 6.53529 0.784666 6.67996 0.64C6.82463 0.495333 7.01063 0.422999 7.23796 0.422999H9.77996C9.98663 0.422999 10.1623 0.495333 10.307 0.64C10.4723 0.784666 10.555 0.970665 10.555 1.198V6.716H16.042C16.2693 6.716 16.4553 6.78833 16.6 6.933C16.7446 7.07767 16.817 7.26367 16.817 7.491V9.754C16.817 9.98133 16.7446 10.1673 16.6 10.312C16.4553 10.4567 16.2693 10.529 16.042 10.529H10.555V16.202C10.555 16.4293 10.4723 16.6153 10.307 16.76C10.1623 16.9047 9.98663 16.977 9.77996 16.977H7.23796Z" fill="white"/>
</svg>
