<svg width="22" height="22" viewBox="0 0 22 22" fill="none" xmlns="http://www.w3.org/2000/svg">
<g clip-path="url(#clip0_1_4868)">
<path d="M19.25 5.72275C19.2513 5.24094 19.157 4.76365 18.9726 4.31852C18.7882 3.87339 18.5173 3.46925 18.1757 3.1295L16.1205 1.07433C15.4318 0.388519 14.5001 0.0024085 13.5282 0L5.5 0C4.77065 0 4.07118 0.289731 3.55546 0.805456C3.03973 1.32118 2.75 2.02065 2.75 2.75V22H19.25V5.72275ZM16.8795 4.42567C16.9256 4.47568 16.9687 4.52833 17.0088 4.58333H14.6667V2.24125C14.7217 2.28126 14.7743 2.32441 14.8243 2.3705L16.8795 4.42567ZM4.58333 20.1667V2.75C4.58333 2.50688 4.67991 2.27373 4.85182 2.10182C5.02373 1.92991 5.25689 1.83333 5.5 1.83333H12.8333V6.41667H17.4167V20.1667H4.58333ZM7.33333 8.25H14.6667V10.0833H7.33333V8.25ZM7.33333 11.9167H14.6667V13.75H7.33333V11.9167ZM12.8498 15.4128L14.6511 15.7483C14.476 16.7081 13.7298 18.3333 12.0404 18.3333C11.3773 18.3328 10.7346 18.1043 10.2199 17.6862C9.93208 17.4818 9.83125 17.4167 9.61308 17.4167C9.28492 17.5411 8.99532 17.7498 8.77342 18.0217L7.39842 16.8144C7.95289 16.137 8.745 15.6966 9.61308 15.5833C10.2225 15.5906 10.8113 15.8053 11.2823 16.192C11.4878 16.3856 11.7582 16.4954 12.0404 16.5C12.6115 16.5 12.8471 15.4247 12.8498 15.4128Z" fill="black"/>
</g>
<defs>
<clipPath id="clip0_1_4868">
<rect width="22" height="22" fill="white"/>
</clipPath>
</defs>
</svg>
