<svg width="18" height="18" viewBox="0 0 18 18" fill="none" xmlns="http://www.w3.org/2000/svg">
<path d="M14.5001 11.0002C13.9331 11.0007 13.3746 11.1391 12.873 11.4036C12.3714 11.668 11.9416 12.0506 11.6209 12.5182L6.73913 10.3139C7.08586 9.47667 7.08721 8.53621 6.74288 7.69794L11.6179 5.48244C12.0933 6.17001 12.7994 6.66441 13.6081 6.87598C14.4168 7.08754 15.2745 7.00224 16.0257 6.63557C16.7769 6.26889 17.3718 5.64512 17.7025 4.87739C18.0332 4.10967 18.0778 3.24885 17.8281 2.45107C17.5785 1.6533 17.0512 0.971414 16.3419 0.529108C15.6326 0.086802 14.7883 -0.0866291 13.962 0.0402735C13.1358 0.167176 12.3824 0.586007 11.8386 1.22079C11.2947 1.85558 10.9963 2.66428 10.9976 3.50019C11.0008 3.69804 11.0209 3.89526 11.0576 4.08969L5.87513 6.44469C5.37738 5.97836 4.75426 5.66757 4.08231 5.55051C3.41036 5.43346 2.71885 5.51523 2.09273 5.78578C1.46662 6.05634 0.93317 6.50389 0.557924 7.07346C0.182677 7.64303 -0.0180242 8.30981 -0.0195228 8.99188C-0.0210214 9.67395 0.176748 10.3416 0.549488 10.9128C0.922228 11.484 1.45371 11.9339 2.07862 12.2072C2.70354 12.4805 3.39469 12.5653 4.06714 12.4512C4.7396 12.3371 5.36409 12.0291 5.86388 11.5649L11.0599 13.9109C11.0238 14.1052 11.004 14.3021 11.0006 14.4997C11.0005 15.192 11.2057 15.8689 11.5902 16.4446C11.9748 17.0203 12.5214 17.4691 13.161 17.7341C13.8007 17.9991 14.5045 18.0685 15.1836 17.9335C15.8626 17.7984 16.4864 17.4651 16.9759 16.9755C17.4655 16.4859 17.7989 15.8622 17.9339 15.1831C18.0689 14.5041 17.9996 13.8002 17.7345 13.1606C17.4695 12.521 17.0208 11.9743 16.445 11.5898C15.8693 11.2052 15.1925 11 14.5001 11.0002ZM14.5001 1.49994C14.8958 1.49979 15.2826 1.61698 15.6116 1.83668C15.9406 2.05638 16.1971 2.36872 16.3486 2.73421C16.5002 3.09969 16.5399 3.5019 16.4628 3.88996C16.3857 4.27802 16.1952 4.6345 15.9155 4.91432C15.6358 5.19413 15.2794 5.38471 14.8914 5.46195C14.5034 5.53919 14.1011 5.49963 13.7356 5.34825C13.37 5.19688 13.0576 4.94051 12.8378 4.61155C12.618 4.28259 12.5006 3.89584 12.5006 3.50019C12.501 2.96994 12.7118 2.46152 13.0867 2.0865C13.4615 1.71149 13.9699 1.50054 14.5001 1.49994ZM3.50063 11.0002C3.10498 11.0003 2.71818 10.8832 2.38914 10.6635C2.06011 10.4438 1.80361 10.1314 1.6521 9.76592C1.50059 9.40044 1.46087 8.99823 1.53797 8.61017C1.61506 8.22211 1.80551 7.86563 2.08522 7.58582C2.36493 7.306 2.72134 7.11542 3.10937 7.03818C3.4974 6.96094 3.89962 7.00051 4.26517 7.15188C4.63071 7.30325 4.94315 7.55963 5.16297 7.88858C5.38279 8.21754 5.50013 8.6043 5.50013 8.99994C5.49953 9.53013 5.2887 10.0384 4.91387 10.4134C4.53905 10.7884 4.03081 10.9994 3.50063 11.0002ZM14.5001 16.4999C14.1045 16.4999 13.7178 16.3826 13.3888 16.1628C13.0599 15.9431 12.8035 15.6307 12.6521 15.2652C12.5007 14.8997 12.4611 14.4975 12.5383 14.1095C12.6155 13.7215 12.806 13.365 13.0857 13.0853C13.3655 12.8056 13.7219 12.6151 14.1099 12.5379C14.4979 12.4607 14.9001 12.5003 15.2656 12.6517C15.6311 12.8031 15.9435 13.0595 16.1633 13.3884C16.3831 13.7174 16.5004 14.1041 16.5004 14.4997C16.5 15.0301 16.2891 15.5386 15.9141 15.9136C15.539 16.2887 15.0305 16.4995 14.5001 16.4999Z" fill="#625F5F"/>
</svg>
