<svg width="18" height="18" viewBox="0 0 18 18" fill="none" xmlns="http://www.w3.org/2000/svg">
<path d="M17.7798 16.7198L13.3031 12.2431C14.5231 10.751 15.1229 8.84715 14.9785 6.92525C14.8341 5.00335 13.9565 3.21048 12.5273 1.91747C11.0981 0.624463 9.22654 -0.0697502 7.29982 -0.0215763C5.37311 0.0265975 3.53862 0.813473 2.1758 2.17629C0.812985 3.53911 0.0261092 5.3736 -0.0220646 7.30031C-0.0702385 9.22703 0.623975 11.0985 1.91698 12.5278C3.20999 13.957 5.00287 14.8346 6.92476 14.979C8.84666 15.1234 10.7505 14.5235 12.2426 13.3036L16.7193 17.7803C16.8608 17.917 17.0502 17.9925 17.2469 17.9908C17.4435 17.9891 17.6317 17.9103 17.7707 17.7712C17.9098 17.6321 17.9886 17.444 17.9904 17.2474C17.9921 17.0507 17.9165 16.8613 17.7798 16.7198ZM7.49959 13.5001C6.3129 13.5001 5.15287 13.1482 4.16617 12.4889C3.17948 11.8296 2.41044 10.8925 1.95632 9.79618C1.50219 8.69982 1.38337 7.49343 1.61488 6.32954C1.84639 5.16565 2.41784 4.09656 3.25695 3.25744C4.09607 2.41832 5.16516 1.84688 6.32905 1.61537C7.49294 1.38386 8.69934 1.50268 9.79569 1.9568C10.892 2.41093 11.8291 3.17996 12.4884 4.16666C13.1477 5.15335 13.4996 6.31339 13.4996 7.50008C13.4978 9.09083 12.8651 10.6159 11.7403 11.7407C10.6154 12.8656 9.09034 13.4983 7.49959 13.5001Z" fill="#625F5F"/>
</svg>
