<svg width="9" height="10" viewBox="0 0 9 10" fill="none" xmlns="http://www.w3.org/2000/svg">
<path d="M8.92969 4.63013H4.86279V0.563232H8.92969V4.63013ZM8.19025 1.30267H5.60222V3.8907H8.19025V1.30267ZM7.45081 2.04211H6.34166V3.15126H7.45081V2.04211ZM0.056448 0.563232H4.12335V4.63013H0.056448V0.563232ZM0.795885 3.8907H3.38391V1.30267H0.795885V3.8907ZM1.53532 3.15126H2.64448V2.04211H1.53532V3.15126ZM8.92969 9.43647H4.86279V5.36957H8.92969V9.43647ZM8.19025 6.10901H5.60222V8.69703H8.19025V6.10901ZM7.45081 6.84844H6.34166V7.9576H7.45081V6.84844ZM2.64448 5.36957V6.84844H4.12335V5.36957H2.64448ZM2.64448 6.84844H1.53532V7.9576H2.64448V6.84844ZM4.12335 7.9576H2.64448V9.43647H4.12335V7.9576ZM0.056448 5.36957V6.84844H1.53532V5.36957H0.056448Z" fill="black"/>
</svg>
