<svg width="24" height="24" viewBox="0 0 24 24" fill="none" xmlns="http://www.w3.org/2000/svg">
<path d="M7 0H4C1.794 0 0 1.794 0 4V7C0 9.206 1.794 11 4 11H7C9.206 11 11 9.206 11 7V4C11 1.794 9.206 0 7 0ZM9 7C9 8.103 8.103 9 7 9H4C2.897 9 2 8.103 2 7V4C2 2.897 2.897 2 4 2H7C8.103 2 9 2.897 9 4V7ZM7 5V6C7 6.552 6.552 7 6 7H5C4.448 7 4 6.552 4 6V5C4 4.448 4.448 4 5 4H6C6.552 4 7 4.448 7 5ZM17 11H20C22.206 11 24 9.206 24 7V4C24 1.794 22.206 0 20 0H17C14.794 0 13 1.794 13 4V7C13 9.206 14.794 11 17 11ZM15 4C15 2.897 15.897 2 17 2H20C21.103 2 22 2.897 22 4V7C22 8.103 21.103 9 20 9H17C15.897 9 15 8.103 15 7V4ZM17 6V5C17 4.448 17.448 4 18 4H19C19.552 4 20 4.448 20 5V6C20 6.552 19.552 7 19 7H18C17.448 7 17 6.552 17 6ZM7 13H4C1.794 13 0 14.794 0 17V20C0 22.206 1.794 24 4 24H7C9.206 24 11 22.206 11 20V17C11 14.794 9.206 13 7 13ZM9 20C9 21.103 8.103 22 7 22H4C2.897 22 2 21.103 2 20V17C2 15.897 2.897 15 4 15H7C8.103 15 9 15.897 9 17V20ZM7 18V19C7 19.552 6.552 20 6 20H5C4.448 20 4 19.552 4 19V18C4 17.448 4.448 17 5 17H6C6.552 17 7 17.448 7 18ZM17 14.5V15.5C17 16.328 16.328 17 15.5 17H14.5C13.672 17 13 16.328 13 15.5V14.5C13 13.672 13.672 13 14.5 13H15.5C16.328 13 17 13.672 17 14.5ZM20 18.5C20 19.328 19.328 20 18.5 20C17.672 20 17 19.328 17 18.5C17 17.672 17.672 17 18.5 17C19.328 17 20 17.672 20 18.5ZM17 21.5V22.5C17 23.328 16.328 24 15.5 24H14.5C13.672 24 13 23.328 13 22.5V21.5C13 20.672 13.672 20 14.5 20H15.5C16.328 20 17 20.672 17 21.5ZM24 14.5V15.5C24 16.328 23.328 17 22.5 17H21.5C20.672 17 20 16.328 20 15.5V14.5C20 13.672 20.672 13 21.5 13H22.5C23.328 13 24 13.672 24 14.5Z" fill="white"/>
</svg>
