<svg width="18" height="16" viewBox="0 0 18 16" fill="none" xmlns="http://www.w3.org/2000/svg">
<path d="M17.5 8.00003C17.4939 7.3424 17.2289 6.71365 16.7625 6.25003L11.4 0.875027C11.1658 0.642213 10.849 0.511536 10.5188 0.511536C10.1885 0.511536 9.8717 0.642213 9.6375 0.875027C9.52034 0.991231 9.42735 1.12948 9.36389 1.28181C9.30043 1.43413 9.26775 1.59751 9.26775 1.76253C9.26775 1.92754 9.30043 2.09092 9.36389 2.24325C9.42735 2.39557 9.52034 2.53382 9.6375 2.65003L13.75 6.75003H1.25C0.918479 6.75003 0.600537 6.88172 0.366117 7.11614C0.131696 7.35056 0 7.66851 0 8.00003C0 8.33155 0.131696 8.64949 0.366117 8.88391C0.600537 9.11833 0.918479 9.25003 1.25 9.25003H13.75L9.6375 13.3625C9.40212 13.5963 9.26923 13.9139 9.26805 14.2456C9.26688 14.5773 9.39753 14.8959 9.63125 15.1313C9.86497 15.3667 10.1826 15.4996 10.5143 15.5007C10.846 15.5019 11.1646 15.3712 11.4 15.1375L16.7625 9.76253C17.232 9.29584 17.4972 8.662 17.5 8.00003Z" fill="white"/>
</svg>
