<svg width="18" height="18" viewBox="0 0 18 18" fill="none" xmlns="http://www.w3.org/2000/svg">
<g clip-path="url(#clip0_259_2378)">
<path d="M12.75 18H5.25C3.18225 18 1.5 16.3177 1.5 14.25V3.75C1.5 1.68225 3.18225 0 5.25 0H12.75C14.8178 0 16.5 1.68225 16.5 3.75V14.25C16.5 16.3177 14.8178 18 12.75 18ZM5.25 1.5C4.0095 1.5 3 2.5095 3 3.75V14.25C3 15.4905 4.0095 16.5 5.25 16.5H12.75C13.9905 16.5 15 15.4905 15 14.25V3.75C15 2.5095 13.9905 1.5 12.75 1.5H5.25ZM13.5 4.5C13.5 4.086 13.164 3.75 12.75 3.75H9.75C9.336 3.75 9 4.086 9 4.5C9 4.914 9.336 5.25 9.75 5.25H12.75C13.164 5.25 13.5 4.914 13.5 4.5ZM13.5 9C13.5 8.586 13.164 8.25 12.75 8.25H9.75C9.336 8.25 9 8.586 9 9C9 9.414 9.336 9.75 9.75 9.75H12.75C13.164 9.75 13.5 9.414 13.5 9ZM13.5 13.5C13.5 13.086 13.164 12.75 12.75 12.75H9.75C9.336 12.75 9 13.086 9 13.5C9 13.914 9.336 14.25 9.75 14.25H12.75C13.164 14.25 13.5 13.914 13.5 13.5ZM7.5 5.25V3.75C7.5 3.336 7.164 3 6.75 3H5.25C4.836 3 4.5 3.336 4.5 3.75V5.25C4.5 5.664 4.836 6 5.25 6H6.75C7.164 6 7.5 5.664 7.5 5.25ZM7.5 9.75V8.25C7.5 7.836 7.164 7.5 6.75 7.5H5.25C4.836 7.5 4.5 7.836 4.5 8.25V9.75C4.5 10.164 4.836 10.5 5.25 10.5H6.75C7.164 10.5 7.5 10.164 7.5 9.75ZM7.5 14.25V12.75C7.5 12.336 7.164 12 6.75 12H5.25C4.836 12 4.5 12.336 4.5 12.75V14.25C4.5 14.664 4.836 15 5.25 15H6.75C7.164 15 7.5 14.664 7.5 14.25Z" fill="#666666"/>
</g>
<defs>
<clipPath id="clip0_259_2378">
<rect width="18" height="18" fill="white"/>
</clipPath>
</defs>
</svg>
