<svg width="20" height="22" viewBox="0 0 20 22" fill="none" xmlns="http://www.w3.org/2000/svg">
<path d="M14.583 22H5.41634C2.88909 22 0.833008 19.9439 0.833008 17.4167V4.58333C0.833008 2.05608 2.88909 0 5.41634 0H14.583C17.1103 0 19.1663 2.05608 19.1663 4.58333V17.4167C19.1663 19.9439 17.1103 22 14.583 22ZM5.41634 1.83333C3.90017 1.83333 2.66634 3.06717 2.66634 4.58333V17.4167C2.66634 18.9328 3.90017 20.1667 5.41634 20.1667H14.583C16.0992 20.1667 17.333 18.9328 17.333 17.4167V4.58333C17.333 3.06717 16.0992 1.83333 14.583 1.83333H5.41634ZM15.4997 5.5C15.4997 4.994 15.089 4.58333 14.583 4.58333H10.9163C10.4103 4.58333 9.99967 4.994 9.99967 5.5C9.99967 6.006 10.4103 6.41667 10.9163 6.41667H14.583C15.089 6.41667 15.4997 6.006 15.4997 5.5ZM15.4997 11C15.4997 10.494 15.089 10.0833 14.583 10.0833H10.9163C10.4103 10.0833 9.99967 10.494 9.99967 11C9.99967 11.506 10.4103 11.9167 10.9163 11.9167H14.583C15.089 11.9167 15.4997 11.506 15.4997 11ZM15.4997 16.5C15.4997 15.994 15.089 15.5833 14.583 15.5833H10.9163C10.4103 15.5833 9.99967 15.994 9.99967 16.5C9.99967 17.006 10.4103 17.4167 10.9163 17.4167H14.583C15.089 17.4167 15.4997 17.006 15.4997 16.5ZM8.16634 6.41667V4.58333C8.16634 4.07733 7.75567 3.66667 7.24967 3.66667H5.41634C4.91034 3.66667 4.49967 4.07733 4.49967 4.58333V6.41667C4.49967 6.92267 4.91034 7.33333 5.41634 7.33333H7.24967C7.75567 7.33333 8.16634 6.92267 8.16634 6.41667ZM8.16634 11.9167V10.0833C8.16634 9.57733 7.75567 9.16667 7.24967 9.16667H5.41634C4.91034 9.16667 4.49967 9.57733 4.49967 10.0833V11.9167C4.49967 12.4227 4.91034 12.8333 5.41634 12.8333H7.24967C7.75567 12.8333 8.16634 12.4227 8.16634 11.9167ZM8.16634 17.4167V15.5833C8.16634 15.0773 7.75567 14.6667 7.24967 14.6667H5.41634C4.91034 14.6667 4.49967 15.0773 4.49967 15.5833V17.4167C4.49967 17.9227 4.91034 18.3333 5.41634 18.3333H7.24967C7.75567 18.3333 8.16634 17.9227 8.16634 17.4167Z" fill="#666666"/>
</svg>
