<svg width="24" height="20" viewBox="0 0 24 20" fill="none" xmlns="http://www.w3.org/2000/svg">
<path d="M14 10.8333H16V12.5H14V10.8333ZM18 12.5H20V10.8333H18V12.5ZM14 15.8333H16V14.1667H14V15.8333ZM18 15.8333H20V14.1667H18V15.8333ZM14 5.83333H16V4.16667H14V5.83333ZM18 5.83333H20V4.16667H18V5.83333ZM14 9.16667H16V7.5H14V9.16667ZM18 9.16667H20V7.5H18V9.16667ZM24 2.5V20H0V7.3575C0 6.69 0.312 6.06167 0.879 5.58917L3.586 3.33333C4.875 2.25833 7.125 2.25833 8.414 3.33333L10 4.655V2.5C10 1.12167 11.346 0 13 0H21C22.654 0 24 1.12167 24 2.5ZM10 7.3575C10 7.135 9.896 6.925 9.707 6.7675L7 4.51167C6.474 4.07333 5.526 4.07333 5 4.51167L2.293 6.7675C2.104 6.925 2 7.13417 2 7.3575V18.3333H10V7.3575ZM22 2.5C22 2.04083 21.551 1.66667 21 1.66667H13C12.449 1.66667 12 2.04083 12 2.5V18.3333H22V2.5ZM5 12.5H7V10.8333H5V12.5ZM5 9.16667H7V7.5H5V9.16667ZM5 15.8333H7V14.1667H5V15.8333Z" fill="#666666"/>
</svg>
