<svg width="22" height="26" viewBox="0 0 22 26" fill="none" xmlns="http://www.w3.org/2000/svg">
<path d="M7.75033 18.4167V20.5833C7.75033 21.1813 7.26499 21.6667 6.66699 21.6667C6.06899 21.6667 5.58366 21.1813 5.58366 20.5833V18.4167C5.58366 17.8187 6.06899 17.3333 6.66699 17.3333C7.26499 17.3333 7.75033 17.8187 7.75033 18.4167ZM15.3337 15.1667C14.7346 15.1667 14.2503 15.652 14.2503 16.25V20.5833C14.2503 21.1813 14.7346 21.6667 15.3337 21.6667C15.9327 21.6667 16.417 21.1813 16.417 20.5833V16.25C16.417 15.652 15.9327 15.1667 15.3337 15.1667ZM11.0003 11.9167C10.4023 11.9167 9.91699 12.402 9.91699 13V20.5833C9.91699 21.1813 10.4023 21.6667 11.0003 21.6667C11.5983 21.6667 12.0837 21.1813 12.0837 20.5833V13C12.0837 12.402 11.5983 11.9167 11.0003 11.9167ZM21.8337 11.3588V20.5833C21.8337 23.5701 19.4037 26 16.417 26H5.58366C2.59691 26 0.166992 23.5701 0.166992 20.5833V5.41667C0.166992 2.42992 2.59691 0 5.58366 0H10.4749C12.4997 0 14.4042 0.788667 15.8374 2.22083L19.6117 5.99733C21.0439 7.42842 21.8337 9.33292 21.8337 11.3598V11.3588ZM14.3056 3.75267C13.9611 3.40817 13.5787 3.11675 13.167 2.88058V7.58333C13.167 8.18025 13.6523 8.66667 14.2503 8.66667H18.9531C18.7169 8.25608 18.4244 7.87367 18.081 7.52917L14.3067 3.75267H14.3056ZM19.667 11.3588C19.667 11.1822 19.6583 11.0067 19.6421 10.8333H14.2503C12.4585 10.8333 11.0003 9.37517 11.0003 7.58333V2.19158C10.827 2.17533 10.6515 2.16667 10.4749 2.16667H5.58366C3.79183 2.16667 2.33366 3.62483 2.33366 5.41667V20.5833C2.33366 22.3752 3.79183 23.8333 5.58366 23.8333H16.417C18.2088 23.8333 19.667 22.3752 19.667 20.5833V11.3588Z" fill="#666666"/>
</svg>
