<svg width="40" height="40" viewBox="0 0 40 40" fill="none" xmlns="http://www.w3.org/2000/svg">
<path opacity="0.2" d="M20 40C31.0457 40 40 31.0457 40 20C40 8.9543 31.0457 0 20 0C8.9543 0 0 8.9543 0 20C0 31.0457 8.9543 40 20 40Z" fill="#5E47DC"/>
<path fill-rule="evenodd" clip-rule="evenodd" d="M16.7812 31.2024L16.7975 31.2174L16.8087 31.2049L16.7812 31.2024Z" fill="#5E40E0"/>
<path d="M28.0754 13.6162C28.2804 13.6162 28.4504 13.7637 28.4866 13.9575L28.4929 14.0325V18.7325C29.0479 18.7575 29.5866 19.0025 29.9729 19.4425L30.0666 19.5575L32.3354 22.5362C32.3762 22.5902 32.4032 22.6533 32.4141 22.72L32.4204 22.7887V27.1512C32.4203 28.6999 31.8184 30.1879 30.7418 31.3011C29.6652 32.4143 28.1981 33.0656 26.6504 33.1175L26.4504 33.1212H25.6541C24.3534 33.1213 23.1003 32.6316 22.1444 31.7496C21.1884 30.8675 20.5997 29.6578 20.4954 28.3612H18.9954C18.8979 28.3614 18.8034 28.3273 18.7285 28.2649C18.6536 28.2026 18.6029 28.1159 18.5854 28.02L18.5791 27.945V27.1325C18.5783 27.0281 18.6168 26.9271 18.6869 26.8498C18.7571 26.7724 18.8537 26.7242 18.9577 26.7147C19.0617 26.7053 19.1655 26.7353 19.2484 26.7988C19.3313 26.8623 19.3874 26.9546 19.4054 27.0575L19.4116 27.1325V27.5287H22.3229V15.7875C22.3229 15.5825 22.4704 15.4125 22.6641 15.3775L22.7391 15.3712C22.9441 15.3712 23.1141 15.5187 23.1491 15.7125L23.1554 15.7875V27.9437C23.1554 28.1487 23.0091 28.3187 22.8141 28.3537L22.7391 28.3612H21.3329C21.4335 29.404 21.9078 30.3752 22.6681 31.0958C23.4285 31.8164 24.4237 32.2379 25.4704 32.2825L25.6541 32.2862H26.4491C27.7791 32.2862 29.0573 31.7703 30.0148 30.8471C30.9722 29.9239 31.5343 28.6654 31.5829 27.3362L31.5866 27.1487V22.9275L29.4041 20.06C29.2246 19.8241 28.9678 19.6588 28.6787 19.5932C28.3896 19.5276 28.0866 19.5659 27.8229 19.7012L27.7166 19.7625C27.4854 19.9108 27.3174 20.1397 27.2451 20.4048C27.1728 20.6698 27.2014 20.9523 27.3254 21.1975L27.3904 21.31L28.6954 23.2775H29.9066C30.1116 23.2775 30.2816 23.425 30.3166 23.62L30.3229 23.695C30.3229 23.9 30.1754 24.07 29.9816 24.105L29.9066 24.1112H28.4929V27.9437C28.4929 28.1487 28.3454 28.3187 28.1516 28.3537L28.0766 28.3612H24.6291C24.5232 28.3642 24.4202 28.3267 24.341 28.2564C24.2618 28.1861 24.2124 28.0882 24.2028 27.9827C24.1933 27.8772 24.2243 27.7721 24.2895 27.6887C24.3548 27.6052 24.4494 27.5498 24.5541 27.5337L24.6291 27.5275H27.6591V23.3775C27.6591 23.335 27.6654 23.295 27.6779 23.2562L26.6804 21.7462C26.4022 21.3124 26.3077 20.7859 26.4176 20.2824C26.5275 19.7789 26.8329 19.3396 27.2666 19.0612C27.3916 18.98 27.5241 18.915 27.6591 18.8637V14.4475H19.4129V14.9762C19.4129 15.1812 19.2666 15.3512 19.0716 15.3862L18.9966 15.3925C18.8991 15.3926 18.8047 15.3585 18.7298 15.2962C18.6548 15.2338 18.6042 15.1471 18.5866 15.0512L18.5804 14.9762V14.0312C18.5804 13.8262 18.7279 13.6562 18.9216 13.6212L18.9966 13.615H28.0779L28.0754 13.6162Z" fill="#5E47DC"/>
<path fill-rule="evenodd" clip-rule="evenodd" d="M24.1172 17.4913V16.4038C24.1172 16.0663 24.3934 15.7888 24.7322 15.7888H25.8197C26.1572 15.7888 26.4347 16.0651 26.4347 16.4026V17.4913C26.4347 17.8276 26.1597 18.1051 25.8209 18.1051H24.7322C24.5696 18.1047 24.4138 18.0402 24.2986 17.9255C24.1834 17.8107 24.1182 17.6551 24.1172 17.4926" fill="#5E47DC" fill-opacity="0.6"/>
<path fill-rule="evenodd" clip-rule="evenodd" d="M18.9947 15.5112C18.7599 15.5285 18.5402 15.6339 18.3799 15.8064C18.2196 15.9789 18.1305 16.2057 18.1305 16.4412C18.1305 16.6767 18.2196 16.9035 18.3799 17.076C18.5402 17.2485 18.7599 17.354 18.9947 17.3712C19.2296 17.354 19.4493 17.2485 19.6096 17.076C19.7699 16.9035 19.859 16.6767 19.859 16.4412C19.859 16.2057 19.7699 15.9789 19.6096 15.8064C19.4493 15.6339 19.2296 15.5285 18.9947 15.5112ZM18.9947 18.3425C17.946 18.3425 17.0947 17.49 17.0947 16.4425C17.0947 15.3962 17.9472 14.5425 18.9947 14.5425C20.0447 14.5425 20.8947 15.3962 20.8947 16.4425C20.8947 17.49 20.0447 18.3425 18.9947 18.3425Z" fill="#5E47DC"/>
<path fill-rule="evenodd" clip-rule="evenodd" d="M18.69 18.9288C18.4436 18.9414 18.2114 19.0482 18.0414 19.227C17.8714 19.4059 17.7766 19.6433 17.7766 19.8901C17.7766 20.1369 17.8714 20.3742 18.0414 20.5531C18.2114 20.732 18.4436 20.8388 18.69 20.8513C18.9365 20.8388 19.1687 20.732 19.3387 20.5531C19.5087 20.3742 19.6035 20.1369 19.6035 19.8901C19.6035 19.6433 19.5087 19.4059 19.3387 19.227C19.1687 19.0482 18.9365 18.9414 18.69 18.9288ZM18.69 21.8213C18.1782 21.821 17.6873 21.6176 17.3252 21.2558C16.9632 20.8939 16.7595 20.4032 16.7588 19.8913C16.7768 19.3911 16.9881 18.9175 17.3484 18.57C17.7086 18.2225 18.1895 18.0283 18.69 18.0283C19.1905 18.0283 19.6715 18.2225 20.0317 18.57C20.3919 18.9175 20.6033 19.3911 20.6213 19.8913C20.6213 20.9563 19.755 21.8213 18.69 21.8213Z" fill="#5E47DC"/>
<path fill-rule="evenodd" clip-rule="evenodd" d="M18.69 21.9639C19.0655 21.9639 19.4256 22.113 19.691 22.3785C19.9565 22.644 20.1057 23.004 20.1057 23.3795C20.1057 23.7549 19.9565 24.115 19.691 24.3805C19.4256 24.646 19.0655 24.7951 18.69 24.7951C18.3146 24.7951 17.9545 24.646 17.689 24.3805C17.4236 24.115 17.2744 23.7549 17.2744 23.3795C17.2744 23.004 17.4236 22.644 17.689 22.3785C17.9545 22.113 18.3146 21.9639 18.69 21.9639Z" stroke="#5E47DC"/>
<path fill-rule="evenodd" clip-rule="evenodd" d="M18.9947 25.2637C18.8374 25.2737 18.6898 25.3432 18.582 25.4582C18.4741 25.5731 18.4141 25.7248 18.4141 25.8824C18.4141 26.04 18.4741 26.1917 18.582 26.3067C18.6898 26.4216 18.8374 26.4912 18.9947 26.5012C19.152 26.4912 19.2996 26.4216 19.4075 26.3067C19.5153 26.1917 19.5754 26.04 19.5754 25.8824C19.5754 25.7248 19.5153 25.5731 19.4075 25.4582C19.2996 25.3432 19.152 25.2737 18.9947 25.2637ZM18.9947 27.4712C18.1197 27.4712 17.4072 26.7587 17.4072 25.8837C17.4072 25.0074 18.1197 24.2949 18.9947 24.2949C19.8697 24.2949 20.5822 25.0074 20.5822 25.8824C20.5822 26.7574 19.8697 27.4712 18.9947 27.4712Z" fill="#5E47DC"/>
<path fill-rule="evenodd" clip-rule="evenodd" d="M21.1877 13.9251L15.3902 7.64634C15.2742 7.52076 15.1337 7.4203 14.9774 7.35117C14.821 7.28204 14.6522 7.24571 14.4813 7.24442C14.3103 7.24313 14.141 7.27691 13.9836 7.34368C13.8262 7.41044 13.6843 7.50877 13.5664 7.63259L7.56641 13.9338C7.34534 14.1665 7.22226 14.4754 7.22266 14.7963V21.5388C7.22266 21.8704 7.35435 22.1883 7.58877 22.4227C7.82319 22.6571 8.14114 22.7888 8.47266 22.7888H17.4064L18.3764 21.8213L17.0952 20.0001L18.5789 18.1051L17.4064 16.1051L18.9952 14.7276V13.9251H21.1877Z" fill="#5E47DC" fill-opacity="0.6"/>
</svg>
