<svg width="40" height="40" viewBox="0 0 40 40" fill="none" xmlns="http://www.w3.org/2000/svg">
<path opacity="0.2" d="M20 40C31.0457 40 40 31.0457 40 20C40 8.9543 31.0457 0 20 0C8.9543 0 0 8.9543 0 20C0 31.0457 8.9543 40 20 40Z" fill="#271BC1"/>
<path d="M21.25 15.75C19.7913 15.75 18.3924 16.3295 17.3609 17.3609C16.3295 18.3924 15.75 19.7913 15.75 21.25C15.75 22.7087 16.3295 24.1076 17.3609 25.1391C18.3924 26.1705 19.7913 26.75 21.25 26.75C22.7087 26.75 24.1076 26.1705 25.1391 25.1391C26.1705 24.1076 26.75 22.7087 26.75 21.25C26.75 19.7913 26.1705 18.3924 25.1391 17.3609C24.1076 16.3295 22.7087 15.75 21.25 15.75ZM21.25 16.75C21.8409 16.75 22.4261 16.8664 22.9721 17.0925C23.518 17.3187 24.0141 17.6502 24.432 18.068C24.8498 18.4859 25.1813 18.982 25.4075 19.5279C25.6336 20.0739 25.75 20.6591 25.75 21.25C25.75 21.8409 25.6336 22.4261 25.4075 22.9721C25.1813 23.518 24.8498 24.0141 24.432 24.432C24.0141 24.8498 23.518 25.1813 22.9721 25.4075C22.4261 25.6336 21.8409 25.75 21.25 25.75C20.0565 25.75 18.9119 25.2759 18.068 24.432C17.2241 23.5881 16.75 22.4435 16.75 21.25C16.75 20.0565 17.2241 18.9119 18.068 18.068C18.9119 17.2241 20.0565 16.75 21.25 16.75Z" fill="#271BC1"/>
<path d="M29.585 8.75C29.785 8.75 29.9525 8.89375 29.9912 9.085L30 9.16875V32.0813C30.0001 32.1772 29.9673 32.2703 29.907 32.3449C29.8467 32.4195 29.7626 32.4712 29.6688 32.4912L29.585 32.5H22.0963C21.9857 32.4993 21.88 32.4549 21.8022 32.3764C21.7244 32.2979 21.6809 32.1918 21.6812 32.0813C21.6812 31.8788 21.8238 31.7087 22.0125 31.67L22.0963 31.6613H29.1687V9.5875H13.3312V16.7475C13.3316 16.8438 13.2987 16.9373 13.2381 17.0123C13.1776 17.0872 13.093 17.1389 12.9988 17.1588L12.915 17.1663C12.8192 17.1658 12.7265 17.1324 12.6525 17.0716C12.5785 17.0108 12.5277 16.9264 12.5087 16.8325L12.5 16.7488V9.16875C12.5 8.96625 12.6425 8.7975 12.8313 8.75875L12.915 8.75H29.585Z" fill="#271BC1"/>
<path d="M25.81 11.25C26.0525 11.25 26.25 11.475 26.25 11.75C26.25 11.9912 26.1 12.1937 25.8988 12.24L25.81 12.25H15.44C15.1975 12.25 15 12.025 15 11.75C15 11.5087 15.15 11.3063 15.3513 11.26L15.44 11.25H25.81ZM25.81 13.75C26.0525 13.75 26.25 13.975 26.25 14.25C26.25 14.4912 26.1 14.6937 25.8988 14.74L25.81 14.75H15.44C15.1975 14.75 15 14.525 15 14.25C15 14.0087 15.15 13.8063 15.3513 13.76L15.44 13.75H25.81Z" fill="#271BC1"/>
<path d="M23.09 20.125C23.455 20.125 23.75 20.35 23.75 20.625C23.75 20.8662 23.525 21.0687 23.2238 21.115L23.09 21.125H19.41C19.045 21.125 18.75 20.9 18.75 20.625C18.75 20.3837 18.975 20.1812 19.2762 20.135L19.41 20.125H23.09ZM23.09 18.875C23.455 18.875 23.75 19.1 23.75 19.375C23.75 19.6162 23.525 19.8187 23.2238 19.865L23.09 19.875H19.41C19.045 19.875 18.75 19.65 18.75 19.375C18.75 19.1337 18.975 18.9312 19.2762 18.885L19.41 18.875H23.09Z" fill="#271BC1"/>
<path d="M20.2326 18.75C21.4739 18.75 22.4601 19.6938 22.4601 20.8288C22.4601 21.6963 21.8839 22.4525 21.0564 22.76L20.8939 22.81L22.3039 24.0188C22.5289 24.2125 22.5614 24.5138 22.3964 24.7375L22.3139 24.8275C22.2018 24.923 22.0632 24.982 21.9166 24.9965C21.7701 25.011 21.6226 24.9804 21.4939 24.9088L21.3914 24.8375L18.9476 22.7437C18.5614 22.4125 18.7789 21.8562 19.2751 21.7725L19.4039 21.7625H20.2326C20.4656 21.7593 20.689 21.6691 20.8591 21.5098C21.0291 21.3504 21.1335 21.1333 21.1518 20.901C21.1701 20.6687 21.101 20.438 20.958 20.2539C20.815 20.0699 20.6085 19.9459 20.3789 19.9063L20.2326 19.8937C19.8714 19.8937 19.5789 19.6388 19.5789 19.3225C19.5789 19.0063 19.8714 18.75 20.2326 18.75Z" fill="#271BC1"/>
<path fill-rule="evenodd" clip-rule="evenodd" d="M6.25 20.415H9.42125V29.4438H6.25" fill="#271BC1" fill-opacity="0.5"/>
<path fill-rule="evenodd" clip-rule="evenodd" d="M18.3534 28.2999C18.5249 28.0924 18.6188 27.8316 18.6188 27.5624C18.6188 27.2932 18.5249 27.0324 18.3534 26.8249L14.3409 21.8599L9.4209 21.7849V27.2774L13.6984 31.1174C13.8134 31.2499 14.0446 31.2499 14.1609 31.2499L22.2509 30.1912C22.7134 30.1912 23.0596 29.6612 23.0596 29.1312C23.0596 28.6012 22.7134 28.0712 22.1346 28.0712H18.6196" fill="#271BC1" fill-opacity="0.5"/>
<path d="M14.4116 25.6876C14.4499 25.6456 14.5013 25.6179 14.5575 25.609C14.6136 25.6002 14.6711 25.6107 14.7204 25.6388L14.7754 25.6813L17.2454 28.1938C17.5104 28.4963 18.1054 28.3788 18.4304 27.8901C18.4717 27.8329 18.4994 27.7671 18.5116 27.6976C18.5179 27.6637 18.5309 27.6314 18.5499 27.6026C18.5688 27.5739 18.5934 27.5492 18.622 27.5301C18.6507 27.5109 18.6829 27.4978 18.7168 27.4913C18.7507 27.4849 18.7855 27.4853 18.8191 27.4926C18.9566 27.5238 19.0454 27.6676 19.0154 27.8126C18.9903 27.9387 18.9429 28.0594 18.8754 28.1688L18.8329 28.2238C18.3841 28.9038 17.4904 29.1138 16.9691 28.6613L14.4166 26.0663C14.3676 26.0155 14.3398 25.9479 14.3389 25.8773C14.338 25.8067 14.364 25.7397 14.4116 25.6876Z" fill="#E8EBF9"/>
</svg>
