<svg width="40" height="40" viewBox="0 0 40 40" fill="none" xmlns="http://www.w3.org/2000/svg">
<path opacity="0.2" d="M20 40C31.0457 40 40 31.0457 40 20C40 8.9543 31.0457 0 20 0C8.9543 0 0 8.9543 0 20C0 31.0457 8.9543 40 20 40Z" fill="#4FCB9E"/>
<path fill-rule="evenodd" clip-rule="evenodd" d="M18.2949 31.6162L18.3099 31.6312L18.3224 31.62L18.2949 31.6162Z" fill="#5E40E0"/>
<path fill-rule="evenodd" clip-rule="evenodd" d="M32.1398 32.5038H19.5173C19.2796 32.5032 19.0519 32.4084 18.8839 32.2402C18.7159 32.072 18.6214 31.8441 18.6211 31.6063V24.0726C18.6211 23.8313 18.7136 23.6001 18.8886 23.4326L25.1711 17.2513C25.3385 17.0871 25.5634 16.9948 25.7978 16.9941C26.0323 16.9934 26.2578 17.0844 26.4261 17.2476L32.7711 23.4326C32.8564 23.5158 32.924 23.6154 32.97 23.7254C33.0159 23.8353 33.0393 23.9534 33.0386 24.0726V31.6001C33.0391 31.7186 33.0162 31.836 32.9712 31.9457C32.9262 32.0553 32.8599 32.1549 32.7763 32.2389C32.6927 32.3229 32.5933 32.3895 32.4839 32.435C32.3744 32.4804 32.2583 32.5038 32.1398 32.5038Z" fill="#4FCB9E" fill-opacity="0.6"/>
<path fill-rule="evenodd" clip-rule="evenodd" d="M18.3809 31.115L18.3984 31.13L18.4109 31.1175L18.3809 31.115Z" fill="#5E40E0"/>
<path fill-rule="evenodd" clip-rule="evenodd" d="M7.72169 27.0924C7.65589 27.0929 7.59065 27.0803 7.52976 27.0553C7.46888 27.0304 7.41356 26.9936 7.36703 26.9471C7.3205 26.9005 7.28369 26.8452 7.25874 26.7843C7.23379 26.7234 7.22119 26.6582 7.22169 26.5924V6.97363C7.22169 6.69738 7.44544 6.47363 7.72169 6.47363H22.0029C22.2779 6.47363 22.5017 6.69738 22.5017 6.97363V18.5736C22.5017 18.7059 22.4491 18.8328 22.3556 18.9263C22.2621 19.0198 22.1352 19.0724 22.0029 19.0724C21.8707 19.0724 21.7438 19.0198 21.6503 18.9263C21.5567 18.8328 21.5042 18.7059 21.5042 18.5736V7.46988H8.22044V26.0911L21.5042 26.0036V23.1199C21.5042 22.9876 21.5567 22.8607 21.6503 22.7672C21.7438 22.6737 21.8707 22.6211 22.0029 22.6211C22.1352 22.6211 22.2621 22.6737 22.3556 22.7672C22.4491 22.8607 22.5017 22.9876 22.5017 23.1199V26.4999C22.5017 26.7749 22.2804 26.9961 22.0067 26.9986L7.72419 27.0936L7.72169 27.0924Z" fill="#4FCB9E"/>
<path fill-rule="evenodd" clip-rule="evenodd" d="M19.4341 17.05H9.85032C9.71821 17.05 9.59151 16.9975 9.49809 16.9041C9.40467 16.8107 9.35219 16.684 9.35219 16.5519C9.35219 16.4198 9.40467 16.2931 9.49809 16.1997C9.59151 16.1062 9.71821 16.0538 9.85032 16.0538H19.4341C19.5662 16.0538 19.6929 16.1062 19.7863 16.1997C19.8797 16.2931 19.9322 16.4198 19.9322 16.5519C19.9322 16.684 19.8797 16.8107 19.7863 16.9041C19.6929 16.9975 19.5662 17.05 19.4341 17.05ZM12.2503 24.9913H9.85032C9.71821 24.9913 9.59151 24.9388 9.49809 24.8454C9.40467 24.7519 9.35219 24.6252 9.35219 24.4931C9.35219 24.361 9.40467 24.2343 9.49809 24.1409C9.59151 24.0475 9.71821 23.995 9.85032 23.995H12.2503C12.3824 23.995 12.5091 24.0475 12.6025 24.1409C12.696 24.2343 12.7484 24.361 12.7484 24.4931C12.7484 24.6252 12.696 24.7519 12.6025 24.8454C12.5091 24.9388 12.3824 24.9913 12.2503 24.9913ZM10.3503 13.6H19.0803V9.66251H10.3491L10.3503 13.6ZM19.5791 14.5963H9.85032C9.78467 14.5964 9.71964 14.5836 9.65897 14.5585C9.5983 14.5334 9.5432 14.4966 9.49684 14.4501C9.45047 14.4036 9.41377 14.3484 9.38884 14.2877C9.36391 14.227 9.35124 14.1619 9.35157 14.0963V9.16501C9.35157 8.89001 9.57532 8.66626 9.85157 8.66626H19.5791C19.8541 8.66626 20.0778 8.88876 20.0778 9.16501V14.0988C20.0778 14.3738 19.8553 14.5975 19.5791 14.5975V14.5963ZM9.68407 23.0388H11.9903V20.7338H9.68407V23.0388ZM14.6166 19.0638H9.85032C9.71821 19.0638 9.59151 19.0113 9.49809 18.9179C9.40467 18.8244 9.35219 18.6977 9.35219 18.5656C9.35219 18.4335 9.40467 18.3068 9.49809 18.2134C9.59151 18.12 9.71821 18.0675 9.85032 18.0675H14.6166C14.7487 18.0675 14.8754 18.12 14.9688 18.2134C15.0622 18.3068 15.1147 18.4335 15.1147 18.5656C15.1147 18.6977 15.0622 18.8244 14.9688 18.9179C14.8754 19.0113 14.7487 19.0638 14.6166 19.0638Z" fill="#4FCB9E"/>
</svg>
