<svg width="12" height="12" viewBox="0 0 12 12" fill="none" xmlns="http://www.w3.org/2000/svg">
<path d="M1.87845e-05 5.99296C-0.00508432 7.27515 1.03021 8.31871 2.31243 8.32382C2.90294 8.32616 3.47217 8.1034 3.90422 7.70086L7.36397 9.26295C7.33992 9.39231 7.32675 9.52342 7.32452 9.65498C7.32045 10.946 8.3637 11.9959 9.65474 12C10.9458 12.0041 11.9957 10.9608 11.9998 9.66977C12.0039 8.37873 10.9606 7.32885 9.66954 7.32476C8.8982 7.32232 8.17531 7.70054 7.73752 8.33559L4.48701 6.86789C4.71789 6.31038 4.71878 5.68418 4.48951 5.12602L7.73553 3.65082C8.46647 4.70799 9.91601 4.97241 10.9732 4.24147C12.0303 3.51054 12.2947 2.06102 11.5638 1.00386C10.8329 -0.053305 9.38332 -0.31773 8.32616 0.413208C7.69658 0.848517 7.32131 1.56555 7.32251 2.33097C7.32462 2.46271 7.33798 2.59401 7.36247 2.72349L3.91171 4.29154C2.97679 3.41365 1.50721 3.45988 0.629316 4.3948C0.22301 4.82753 -0.00218164 5.39939 1.87845e-05 5.99296Z" fill="black"/>
</svg>
