<svg width="22" height="22" viewBox="0 0 22 22" fill="none" xmlns="http://www.w3.org/2000/svg">
<g clip-path="url(#clip0_1_4856)">
<path d="M20.1666 22H1.83325V2.75C1.83325 1.23383 3.06709 0 4.58325 0H17.4166C18.9328 0 20.1666 1.23383 20.1666 2.75V22ZM3.66659 20.1667H18.3333V2.75C18.3333 2.24492 17.9217 1.83333 17.4166 1.83333H4.58325C4.07817 1.83333 3.66659 2.24492 3.66659 2.75V20.1667ZM16.4999 4.58333H10.9999V6.41667H16.4999V4.58333ZM16.4999 10.0833H10.9999V11.9167H16.4999V10.0833ZM16.4999 15.5833H10.9999V17.4167H16.4999V15.5833ZM9.16659 3.66667H5.49992V7.33333H9.16659V3.66667ZM9.16659 9.16667H5.49992V12.8333H9.16659V9.16667ZM9.16659 14.6667H5.49992V18.3333H9.16659V14.6667Z" fill="black"/>
</g>
<defs>
<clipPath id="clip0_1_4856">
<rect width="22" height="22" fill="white"/>
</clipPath>
</defs>
</svg>
