<svg width="5" height="15" viewBox="0 0 5 15" fill="none" xmlns="http://www.w3.org/2000/svg">
<path d="M2.49999 11.875C3.36293 11.875 4.06248 12.5746 4.06248 13.4375C4.06248 14.3004 3.36293 15 2.49999 15C1.63705 15 0.9375 14.3004 0.9375 13.4375C0.9375 12.5746 1.63705 11.875 2.49999 11.875Z" fill="#6B6A6A"/>
<path d="M2.49999 5.93752C3.36293 5.93752 4.06248 6.63707 4.06248 7.50001C4.06248 8.36295 3.36293 9.0625 2.49999 9.0625C1.63705 9.0625 0.9375 8.36295 0.9375 7.50001C0.9375 6.63707 1.63705 5.93752 2.49999 5.93752Z" fill="#6B6A6A"/>
<path d="M2.49999 -1.09673e-05C3.36293 -1.09673e-05 4.06248 0.69954 4.06248 1.56248C4.06248 2.42542 3.36293 3.12497 2.49999 3.12497C1.63705 3.12497 0.9375 2.42542 0.9375 1.56248C0.9375 0.69954 1.63705 -1.09673e-05 2.49999 -1.09673e-05Z" fill="#6B6A6A"/>
</svg>
