<svg width="22" height="22" viewBox="0 0 22 22" fill="none" xmlns="http://www.w3.org/2000/svg">
<g clip-path="url(#clip0_1_4870)">
<path d="M20.1666 3.66667H15.5833V1.83333C15.5833 1.3471 15.3901 0.880788 15.0463 0.536971C14.7025 0.193154 14.2361 0 13.7499 0L8.24992 0C7.76369 0 7.29737 0.193154 6.95356 0.536971C6.60974 0.880788 6.41659 1.3471 6.41659 1.83333V3.66667H1.83325V5.5H3.66659V19.25C3.66659 19.9793 3.95632 20.6788 4.47204 21.1945C4.98777 21.7103 5.68724 22 6.41659 22H15.5833C16.3126 22 17.0121 21.7103 17.5278 21.1945C18.0435 20.6788 18.3333 19.9793 18.3333 19.25V5.5H20.1666V3.66667ZM8.24992 1.83333H13.7499V3.66667H8.24992V1.83333ZM16.4999 19.25C16.4999 19.4931 16.4033 19.7263 16.2314 19.8982C16.0595 20.0701 15.8264 20.1667 15.5833 20.1667H6.41659C6.17347 20.1667 5.94031 20.0701 5.7684 19.8982C5.5965 19.7263 5.49992 19.4931 5.49992 19.25V5.5H16.4999V19.25Z" fill="#F01616"/>
<path d="M10.0833 9.16663H8.25V16.5H10.0833V9.16663Z" fill="#F01616"/>
<path d="M13.7498 9.16663H11.9165V16.5H13.7498V9.16663Z" fill="#F01616"/>
</g>
<defs>
<clipPath id="clip0_1_4870">
<rect width="22" height="22" fill="white"/>
</clipPath>
</defs>
</svg>
