<svg width="23" height="23" viewBox="0 0 23 23" fill="none" xmlns="http://www.w3.org/2000/svg">
<g clip-path="url(#clip0_495_1296)">
<path d="M11.5 11.5C12.6372 11.5 13.7489 11.1628 14.6945 10.531C15.6401 9.89914 16.3771 9.00111 16.8123 7.95043C17.2475 6.89976 17.3614 5.74363 17.1395 4.62823C16.9177 3.51284 16.37 2.48829 15.5659 1.68414C14.7617 0.879987 13.7372 0.332352 12.6218 0.110487C11.5064 -0.111378 10.3502 0.00249139 9.29957 0.437695C8.2489 0.872899 7.35087 1.60989 6.71905 2.55547C6.08723 3.50106 5.75 4.61276 5.75 5.75C5.75152 7.27453 6.35781 8.73618 7.43582 9.81419C8.51382 10.8922 9.97547 11.4985 11.5 11.5ZM11.5 1.91667C12.2582 1.91667 12.9993 2.14149 13.6297 2.5627C14.2601 2.98391 14.7514 3.5826 15.0415 4.28305C15.3317 4.9835 15.4076 5.75426 15.2597 6.49785C15.1118 7.24144 14.7467 7.92448 14.2106 8.46058C13.6745 8.99668 12.9914 9.36177 12.2478 9.50968C11.5043 9.65759 10.7335 9.58168 10.033 9.29154C9.3326 9.00141 8.73391 8.51008 8.3127 7.87969C7.89149 7.2493 7.66667 6.50816 7.66667 5.75C7.66667 4.73334 8.07053 3.75832 8.78942 3.03943C9.50831 2.32054 10.4833 1.91667 11.5 1.91667Z" fill="#45A5B6"/>
<path d="M11.5 13.4167C9.21329 13.4192 7.02096 14.3287 5.40401 15.9457C3.78705 17.5626 2.87754 19.755 2.875 22.0417C2.875 22.2959 2.97597 22.5396 3.15569 22.7193C3.33541 22.8991 3.57917 23 3.83333 23C4.0875 23 4.33125 22.8991 4.51098 22.7193C4.6907 22.5396 4.79167 22.2959 4.79167 22.0417C4.79167 20.2625 5.49844 18.5562 6.75649 17.2982C8.01455 16.0401 9.72084 15.3334 11.5 15.3334C13.2792 15.3334 14.9855 16.0401 16.2435 17.2982C17.5016 18.5562 18.2083 20.2625 18.2083 22.0417C18.2083 22.2959 18.3093 22.5396 18.489 22.7193C18.6687 22.8991 18.9125 23 19.1667 23C19.4208 23 19.6646 22.8991 19.8443 22.7193C20.024 22.5396 20.125 22.2959 20.125 22.0417C20.1225 19.755 19.2129 17.5626 17.596 15.9457C15.979 14.3287 13.7867 13.4192 11.5 13.4167Z" fill="#45A5B6"/>
</g>
<defs>
<clipPath id="clip0_495_1296">
<rect width="23" height="23" fill="white"/>
</clipPath>
</defs>
</svg>
