<svg width="18" height="18" viewBox="0 0 18 18" fill="none" xmlns="http://www.w3.org/2000/svg">
<path d="M17.4532 7.06426C16.7761 5.95555 15.922 4.9652 14.9249 4.13251L17.0249 2.03251C17.1615 1.89106 17.2371 1.70161 17.2354 1.50496C17.2337 1.30831 17.1548 1.1202 17.0158 0.981145C16.8767 0.842088 16.6886 0.763212 16.492 0.761503C16.2953 0.759794 16.1059 0.83539 15.9644 0.972009L13.6807 3.25876C12.265 2.41787 10.6465 1.97961 8.99992 1.99126C4.35667 1.99126 1.71067 5.16976 0.546666 7.06426C0.187062 7.64589 -0.00341797 8.31619 -0.00341797 9.00001C-0.00341797 9.68383 0.187062 10.3541 0.546666 10.9358C1.22373 12.0445 2.07778 13.0348 3.07492 13.8675L0.974916 15.9675C0.903284 16.0367 0.846147 16.1195 0.80684 16.211C0.767534 16.3025 0.746844 16.4009 0.745978 16.5005C0.745113 16.6 0.764089 16.6988 0.8018 16.791C0.839511 16.8831 0.895201 16.9669 0.96562 17.0373C1.03604 17.1077 1.11978 17.1634 1.21195 17.2011C1.30412 17.2388 1.40288 17.2578 1.50247 17.2569C1.60205 17.2561 1.70047 17.2354 1.79197 17.1961C1.88347 17.1568 1.96623 17.0996 2.03542 17.028L4.32442 14.739C5.73837 15.5798 7.35492 16.0188 8.99992 16.0088C13.6432 16.0088 16.2892 12.8303 17.4532 10.9358C17.8128 10.3541 18.0033 9.68383 18.0033 9.00001C18.0033 8.31619 17.8128 7.64589 17.4532 7.06426ZM1.82467 10.1505C1.61102 9.80479 1.49785 9.40641 1.49785 9.00001C1.49785 8.5936 1.61102 8.19522 1.82467 7.84951C2.82517 6.22501 5.08642 3.49126 8.99992 3.49126C10.2451 3.48428 11.4728 3.78439 12.5744 4.36501L11.0647 5.87476C10.3446 5.39671 9.48135 5.18251 8.62134 5.26849C7.76133 5.35448 6.95757 5.73536 6.34642 6.34651C5.73527 6.95766 5.35439 7.76143 5.2684 8.62143C5.18241 9.48144 5.39662 10.3447 5.87467 11.0648L4.14217 12.7973C3.22349 12.0545 2.43954 11.1592 1.82467 10.1505ZM11.2499 9.00001C11.2499 9.59674 11.0129 10.169 10.5909 10.591C10.1689 11.013 9.59665 11.25 8.99992 11.25C8.6658 11.2487 8.33631 11.1718 8.03617 11.025L11.0249 8.03626C11.1717 8.33641 11.2486 8.66589 11.2499 9.00001ZM6.74992 9.00001C6.74992 8.40327 6.98697 7.83097 7.40893 7.40902C7.83088 6.98706 8.40318 6.75001 8.99992 6.75001C9.33403 6.7513 9.66352 6.82822 9.96367 6.97501L6.97492 9.96376C6.82813 9.66361 6.75121 9.33412 6.74992 9.00001ZM16.1752 10.1505C15.1747 11.775 12.9134 14.5088 8.99992 14.5088C7.75471 14.5157 6.52699 14.2156 5.42542 13.635L6.93517 12.1253C7.65522 12.6033 8.51849 12.8175 9.37849 12.7315C10.2385 12.6455 11.0423 12.2647 11.6534 11.6535C12.2646 11.0424 12.6454 10.2386 12.7314 9.37858C12.8174 8.51858 12.6032 7.65531 12.1252 6.93526L13.8577 5.20276C14.7763 5.94547 15.5603 6.84079 16.1752 7.84951C16.3888 8.19522 16.502 8.5936 16.502 9.00001C16.502 9.40641 16.3888 9.80479 16.1752 10.1505Z" fill="#C8C8C8"/>
</svg>
