<svg width="18" height="20" viewBox="0 0 18 20" fill="none" xmlns="http://www.w3.org/2000/svg">
<path d="M3.16683 7.02V5.83333C3.16683 4.28624 3.78141 2.80251 4.87537 1.70854C5.96934 0.614582 7.45307 0 9.00016 0C10.5473 0 12.031 0.614582 13.125 1.70854C14.2189 2.80251 14.8335 4.28624 14.8335 5.83333V7.02C15.5757 7.34392 16.2074 7.8771 16.6514 8.55434C17.0954 9.23158 17.3324 10.0235 17.3335 10.8333V15.8333C17.3322 16.938 16.8928 17.997 16.1116 18.7782C15.3305 19.5593 14.2715 19.9987 13.1668 20H4.8335C3.72883 19.9987 2.66979 19.5593 1.88868 18.7782C1.10756 17.997 0.668154 16.938 0.66683 15.8333V10.8333C0.667894 10.0235 0.904917 9.23158 1.34891 8.55434C1.79291 7.8771 2.42463 7.34392 3.16683 7.02ZM13.1668 5.83333C13.1668 4.72826 12.7278 3.66846 11.9464 2.88705C11.165 2.10565 10.1052 1.66667 9.00016 1.66667C7.89509 1.66667 6.83529 2.10565 6.05388 2.88705C5.27248 3.66846 4.8335 4.72826 4.8335 5.83333V6.66667H13.1668V5.83333ZM2.3335 15.8333C2.3335 16.4964 2.59689 17.1323 3.06573 17.6011C3.53457 18.0699 4.17045 18.3333 4.8335 18.3333H13.1668C13.8299 18.3333 14.4658 18.0699 14.9346 17.6011C15.4034 17.1323 15.6668 16.4964 15.6668 15.8333V10.8333C15.6668 10.1703 15.4034 9.53441 14.9346 9.06557C14.4658 8.59672 13.8299 8.33333 13.1668 8.33333H4.8335C4.17045 8.33333 3.53457 8.59672 3.06573 9.06557C2.59689 9.53441 2.3335 10.1703 2.3335 10.8333V15.8333Z" fill="#706E6E"/>
</svg>
