<svg width="20" height="20" viewBox="0 0 20 20" fill="none" xmlns="http://www.w3.org/2000/svg">
<path d="M4.16667 0.833252H15.8333C16.938 0.834575 17.997 1.27399 18.7782 2.0551C19.5593 2.83622 19.9987 3.89526 20 4.99992V14.9999C19.9987 16.1046 19.5593 17.1636 18.7782 17.9447C17.997 18.7259 16.938 19.1653 15.8333 19.1666H4.16667C3.062 19.1653 2.00296 18.7259 1.22185 17.9447C0.440735 17.1636 0.0013237 16.1046 0 14.9999V4.99992C0.0013237 3.89526 0.440735 2.83622 1.22185 2.0551C2.00296 1.27399 3.062 0.834575 4.16667 0.833252ZM15.8333 2.49992H4.16667C3.66768 2.5009 3.1804 2.65118 2.76754 2.93142C2.35468 3.21166 2.03512 3.60904 1.85 4.07242L8.23167 10.4549C8.70131 10.9227 9.33715 11.1853 10 11.1853C10.6628 11.1853 11.2987 10.9227 11.7683 10.4549L18.15 4.07242C17.9649 3.60904 17.6453 3.21166 17.2325 2.93142C16.8196 2.65118 16.3323 2.5009 15.8333 2.49992ZM4.16667 17.4999H15.8333C16.4964 17.4999 17.1323 17.2365 17.6011 16.7677C18.0699 16.2988 18.3333 15.663 18.3333 14.9999V6.24992L12.9467 11.6333C12.1645 12.4135 11.1048 12.8516 10 12.8516C8.89521 12.8516 7.83552 12.4135 7.05333 11.6333L1.66667 6.24992V14.9999C1.66667 15.663 1.93006 16.2988 2.3989 16.7677C2.86774 17.2365 3.50363 17.4999 4.16667 17.4999Z" fill="#706E6E"/>
</svg>
